<svg fill="none" height="24" viewBox="0 0 24 24" width="24" xmlns="http://www.w3.org/2000/svg"><path d="m4.66406 11.6429 6.93754-6.62951c.2203-.20982.5765-.20982.7968 0l6.9375 6.62951c.2203.2098.2203.5491 0 .7589l-.3328.317c-.2203.2098-.5765.2098-.7969 0l-5.4093-5.17862v13.92412c0 .2946-.2532.5357-.5625.5357h-.4688c-.3093 0-.5625-.2411-.5625-.5357v-13.92412l-5.40935 5.17412c-.22031.2098-.57656.2098-.79688 0l-.33281-.317c-.22031-.2053-.22031-.5446 0-.7544zm-1.66406-9.10719v.35715c0 .29464.25313.53571.5625.53571h16.875c.3094 0 .5625-.24107.5625-.53571v-.35715c0-.29464-.2531-.53571-.5625-.53571h-16.875c-.30937 0-.5625.24107-.5625.53571z" fill="currentColor"/></svg>