<svg fill="none" height="24" viewBox="0 0 24 24" width="24" xmlns="http://www.w3.org/2000/svg"><path d="m2.26786 6.46573h19.46424c.0824 0 .1625-.02878.2225-.08159.0602-.05299.0954-.12633.0954-.20436v-.94382c0-.07804-.0352-.15138-.0954-.20437-.06-.05281-.1401-.08159-.2225-.08159h-19.46424c-.0824 0-.1625.02878-.22246.08159-.06016.05299-.0954.12633-.0954.20437v.94382c0 .07803.03524.15137.0954.20436.05996.05281.14006.08159.22246.08159zm0 6.29217h19.46424c.0824 0 .1625-.0288.2225-.0816.0602-.053.0954-.1264.0954-.2044v-.9438c0-.078-.0352-.1514-.0954-.2044-.06-.0528-.1401-.0816-.2225-.0816h-19.46424c-.0824 0-.1625.0288-.22246.0816-.06016.053-.0954.1264-.0954.2044v.9438c0 .078.03524.1514.0954.2044.05996.0528.14006.0816.22246.0816zm0 6.2921h19.46424c.0824 0 .1625-.0288.2225-.0816.0602-.053.0954-.1263.0954-.2044v-.9438c0-.078-.0352-.1513-.0954-.2043-.06-.0529-.1401-.0816-.2225-.0816h-19.46424c-.0824 0-.1625.0287-.22246.0816-.06016.053-.0954.1263-.0954.2043v.9438c0 .0781.03524.1514.0954.2044.05996.0528.14006.0816.22246.0816z" fill="currentColor" stroke="currentColor" stroke-width=".1"/></svg>