<svg   viewBox="0 0 24 24" fill="none" xmlns="http://www.w3.org/2000/svg">
<path d="M21.7321 6.41573H2.26786C2.19682 6.41573 2.12869 6.39087 2.07845 6.34662C2.02822 6.30237 2 6.24235 2 6.17978V5.23596C2 5.17338 2.02822 5.11336 2.07845 5.06911C2.12869 5.02486 2.19682 5 2.26786 5H21.7321C21.8032 5 21.8713 5.02486 21.9215 5.06911C21.9718 5.11336 22 5.17338 22 5.23596V6.17978C22 6.24235 21.9718 6.30237 21.9215 6.34662C21.8713 6.39087 21.8032 6.41573 21.7321 6.41573ZM21.7321 12.7079H2.26786C2.19682 12.7079 2.12869 12.683 2.07845 12.6388C2.02822 12.5945 2 12.5345 2 12.4719V11.5281C2 11.4655 2.02822 11.4055 2.07845 11.3612C2.12869 11.317 2.19682 11.2921 2.26786 11.2921H21.7321C21.8032 11.2921 21.8713 11.317 21.9215 11.3612C21.9718 11.4055 22 11.4655 22 11.5281V12.4719C22 12.5345 21.9718 12.5945 21.9215 12.6388C21.8713 12.683 21.8032 12.7079 21.7321 12.7079ZM21.7321 19H2.26786C2.19682 19 2.12869 18.9751 2.07845 18.9309C2.02822 18.8866 2 18.8266 2 18.764V17.8202C2 17.7576 2.02822 17.6976 2.07845 17.6534C2.12869 17.6091 2.19682 17.5843 2.26786 17.5843H21.7321C21.8032 17.5843 21.8713 17.6091 21.9215 17.6534C21.9718 17.6976 22 17.7576 22 17.8202V18.764C22 18.8266 21.9718 18.8866 21.9215 18.9309C21.8713 18.9751 21.8032 19 21.7321 19Z" fill="currentColor"/>
</svg>
