<svg width="24" height="24" viewBox="0 0 24 24" fill="none" xmlns="http://www.w3.org/2000/svg">
<g clip-path="url(#clip0_2128_24088)">
<circle cx="12" cy="12" r="12" fill="black"/>
<path d="M19.9442 8.98749C19.9569 9.16248 19.9569 9.33751 19.9569 9.5125C19.9569 14.85 15.8326 21 8.29444 21C5.97209 21 3.81473 20.3375 2 19.1875C2.32996 19.225 2.64719 19.2375 2.98985 19.2375C4.90607 19.2375 6.67006 18.6 8.0787 17.5125C6.27666 17.475 4.7665 16.3125 4.24618 14.7125C4.50001 14.75 4.7538 14.775 5.02032 14.775C5.38833 14.775 5.75638 14.725 6.099 14.6375C4.22083 14.2625 2.81215 12.6375 2.81215 10.675V10.625C3.35782 10.925 3.99239 11.1125 4.66493 11.1375C3.56087 10.4125 2.83754 9.17498 2.83754 7.77497C2.83754 7.02499 3.04055 6.33749 3.3959 5.73748C5.41369 8.18748 8.44671 9.78745 11.8477 9.96248C11.7843 9.66248 11.7462 9.35001 11.7462 9.03751C11.7462 6.81248 13.5736 5 15.8452 5C17.0254 5 18.0914 5.4875 18.8401 6.275C19.7665 6.10001 20.6548 5.76249 21.4416 5.3C21.137 6.23752 20.4898 7.02502 19.6396 7.52499C20.4645 7.43753 21.264 7.21248 22 6.90001C21.4417 7.69998 20.7437 8.41245 19.9442 8.98749V8.98749Z" fill="white"/>
<path fill-rule="evenodd" clip-rule="evenodd" d="M18.0413 14.2365C18.058 14.1745 18.1189 13.8989 18.1356 13.8338C18.1797 13.6612 18.2026 13.5007 18.2695 13.3523C18.3501 13.1737 18.4658 13.0208 18.5783 12.8709C18.6605 12.7573 18.7411 12.6529 18.84 12.559C18.8628 12.5378 18.8826 12.5151 18.9054 12.4924C19.0211 12.4106 19.1443 12.3304 19.2858 12.2713C19.3679 12.2365 19.4501 12.2062 19.5353 12.1714C19.6555 12.1199 19.7711 12.0669 19.9111 12.0291C20.0541 11.9897 20.2701 11.9912 20.4086 12.0306C20.4633 12.0473 20.5136 12.0548 20.5622 12.076C20.7935 12.1714 20.9548 12.3304 21.0841 12.5242C21.1769 12.6635 21.2393 12.8285 21.3001 12.9996C21.3153 13.0435 21.3168 13.0919 21.3275 13.1404C21.3351 13.1722 21.3305 13.2327 21.3245 13.26C21.3168 13.2918 21.3229 13.3175 21.3123 13.3493C21.3001 13.3962 21.2864 13.4508 21.2697 13.4962C21.2438 13.5764 21.2301 13.6536 21.2027 13.7324C21.1434 13.9004 21.0841 14.073 21.0156 14.232C20.9045 14.4863 20.8011 14.7316 20.6596 14.9542C20.6307 15.0011 20.6094 15.0526 20.5805 15.098C20.5622 15.1268 20.5531 15.1571 20.5364 15.1858C20.5059 15.2434 20.474 15.3039 20.4405 15.3584C20.4162 15.3963 20.404 15.4387 20.3781 15.478C20.3234 15.5643 20.2747 15.6582 20.2184 15.7445C20.153 15.8414 20.08 15.9307 20.01 16.0216C19.9385 16.1094 19.8411 16.1836 19.7605 16.2608C19.6813 16.338 19.6007 16.4152 19.5201 16.4939C19.4699 16.5409 19.4151 16.5848 19.3725 16.6378C19.3558 16.6514 19.339 16.6681 19.3208 16.6817C19.2736 16.7286 19.2204 16.7771 19.1778 16.8285C19.161 16.8437 19.1443 16.8588 19.1291 16.8724C19.0941 16.9058 19.0591 16.9406 19.0302 16.9769C19.0089 16.9966 18.9861 17.0178 18.9617 17.0375C18.9085 17.1071 18.8355 17.1601 18.7792 17.2282C18.7594 17.2479 18.7381 17.2661 18.7183 17.2843C18.6924 17.3161 18.6651 17.3448 18.6346 17.3736C18.6225 17.3842 18.6088 17.3948 18.5951 17.4069C18.5464 17.472 18.5038 17.522 18.4368 17.5689C18.414 17.5931 18.338 17.6749 18.3151 17.6976C18.2543 17.7703 18.2588 17.7778 18.201 17.8308C18.1356 17.8944 18.0763 17.9641 18.0109 18.0261C17.9926 18.0443 17.9515 18.0882 17.9272 18.0852C17.8876 18.0594 17.8602 18.0186 17.8252 17.9853C17.7629 17.9217 17.6792 17.8747 17.5788 17.7945C17.5423 17.7612 17.5103 17.7294 17.4753 17.6991C17.3856 17.5871 17.2578 17.5038 17.168 17.3902C17.1406 17.3539 17.098 17.3282 17.0676 17.2903C17.0326 17.2585 16.9976 17.2267 16.9641 17.1949C16.9246 17.145 16.8729 17.0995 16.8287 17.0556C16.8044 17.0344 16.7983 17.0254 16.7755 17.0057C16.7618 16.9875 16.7451 16.9633 16.7329 16.9481C16.707 16.9103 16.6659 16.88 16.637 16.8422C16.5427 16.7241 16.4362 16.6181 16.3419 16.5C16.3252 16.4788 16.2978 16.4606 16.2795 16.4394C16.2065 16.3441 16.1182 16.2593 16.0483 16.1624C15.9828 16.073 15.925 15.9777 15.8626 15.8853C15.849 15.8611 15.8444 15.8369 15.8277 15.8126C15.7957 15.7627 15.7638 15.7066 15.7379 15.6521C15.6664 15.4947 15.5994 15.3372 15.5264 15.1798C15.4275 14.9648 15.3226 14.7589 15.2495 14.5166C15.2252 14.4334 15.2115 14.2941 15.2206 14.2002C15.2252 14.1533 15.2176 14.1048 15.2282 14.0639C15.2282 14.0427 15.2282 14.0231 15.2297 14.0019C15.2419 13.9413 15.2526 13.8792 15.2632 13.8171C15.3134 13.6461 15.3636 13.4856 15.4336 13.3342C15.5051 13.1797 15.6055 13.0435 15.7075 12.9148C15.7349 12.8754 15.7653 12.8376 15.7987 12.8043C15.9448 12.6635 16.0878 12.565 16.3206 12.5045C16.3845 12.4863 16.4955 12.4681 16.5762 12.4863C16.6203 12.4954 16.6629 12.5015 16.7085 12.5105C16.8668 12.5605 17.0006 12.6256 17.1224 12.7089C17.3354 12.8512 17.489 13.0435 17.629 13.257C17.6959 13.3569 17.7705 13.4613 17.8222 13.5749C17.88 13.6945 17.9241 13.8232 17.9698 13.9549C18.0048 14.0488 18.0124 14.1487 18.0398 14.2502" fill="#E40047"/>
</g>
<defs>
<clipPath id="clip0_2128_24088">
<rect width="24" height="24" fill="white"/>
</clipPath>
</defs>
</svg>
