<svg fill="none" height="24" viewBox="0 0 24 24" width="24" xmlns="http://www.w3.org/2000/svg" xmlns:xlink="http://www.w3.org/1999/xlink"><clipPath id="a"><path d="m0 0h24v24h-24z"/></clipPath><g clip-path="url(#a)"><circle cx="12" cy="12" fill="#000" r="12"/><g clip-rule="evenodd" fill-rule="evenodd"><path d="m7.02185 18.8799 12.09125-6.8554-12.09125-6.90408z" fill="#fff"/><path d="m6.44672 11.313c.0137-.0548.06695-.2998.08216-.356.03652-.1552.05478-.2982.11107-.4291.06847-.1597.16584-.2951.2617-.429.06999-.0989.13693-.19322.22061-.27538.01978-.01978.03652-.03956.0563-.05933.09737-.07303.20236-.14454.32103-.19626.06999-.03195.13998-.05934.21149-.08977.10194-.04564.19932-.0928.31799-.12627.1202-.03652.3043-.03347.42146.00152.04564.01521.08824.0213.12932.04108.19628.08367.33169.22516.44124.39708.07759.12475.13237.27083.18105.42293.0137.0396.01674.0822.02435.1248.00608.0274.00304.0836-.00305.1065-.00456.0289-.00152.0517-.00913.0791-.01217.0426-.0213.0913-.03651.1308-.02282.0715-.03347.14-.05782.2085-.04869.1506-.09889.3027-.15823.4442-.09129.2252-.17954.4442-.29974.642-.02586.0426-.0426.0883-.06694.1278-.01522.0259-.02435.0518-.03652.0791-.02586.0502-.05325.1035-.08216.1522-.0213.035-.03043.0715-.05325.1065-.04565.0776-.08825.1597-.13541.2373-.05478.0852-.11564.1658-.17497.245-.06086.0791-.1415.1445-.21149.2145-.06695.0684-.13541.1369-.20388.2054-.04108.0426-.08673.0806-.12476.1278-.01522.0137-.02739.0273-.04413.0395-.03803.0426-.08368.0852-.1202.1309-.01369.0121-.02738.0258-.04108.0395-.0289.0289-.05781.0593-.08216.0928-.01825.0168-.03803.035-.05781.0533-.04717.0608-.10803.1095-.15519.1688-.01826.0183-.035.0335-.05174.0502-.0213.029-.04564.0548-.06998.0807-.01065.0076-.02283.0182-.03348.0289-.0426.0563-.07911.1019-.13541.1445-.01978.0213-.08368.0928-.10194.1126-.05173.0654-.04869.0715-.09585.1202-.0563.0563-.10651.1187-.1628.1734-.01522.0152-.05021.0533-.06999.0518-.03347-.0229-.05782-.0609-.08673-.0898-.05173-.0563-.12324-.0974-.20996-.1689-.02891-.0289-.0563-.0578-.08673-.0852-.07455-.1004-.18258-.1734-.26017-.2738-.02282-.032-.05782-.0563-.08368-.0883-.02891-.0289-.05782-.0578-.08673-.0852-.03347-.0426-.0776-.0836-.11563-.1247-.0213-.0183-.02435-.0244-.04565-.0441-.00913-.0153-.02586-.0381-.03499-.0502-.01978-.0335-.0563-.0609-.08216-.0944-.07912-.1065-.17041-.1993-.24801-.3043-.01521-.0182-.03803-.0349-.05173-.0547-.0639-.0852-.13845-.1598-.19779-.245-.05477-.0791-.10346-.1643-.15671-.2464-.01065-.0213-.01522-.0442-.02891-.0655-.02739-.0426-.05478-.0943-.07608-.1414-.06238-.14-.11715-.2815-.17953-.4199-.08368-.1917-.17193-.3728-.23279-.5903-.0213-.0731-.03195-.1948-.02587-.28.00457-.0426-.00304-.0852.00609-.1202.00152-.0198.00152-.0365.00304-.0547.00913-.0548.01826-.1111.02891-.1659.04108-.1521.08368-.2936.14302-.4275.05934-.1384.14606-.2601.23127-.3743.02282-.0334.04869-.0669.07607-.0973.12477-.12477.24648-.21149.44276-.26779.05477-.01521.14758-.03042.21605-.01521.03651.00761.07303.01217.11259.0213.13237.04564.24648.10345.34994.17648.18106.12632.30886.29822.42754.48682.05782.0883.1202.1811.16432.283.04717.1065.08521.2206.12476.3378.02891.0836.035.1719.05782.2601" fill="#e40047"/></g></g></svg>