<svg fill="none" height="24" viewBox="0 0 24 24" width="24" xmlns="http://www.w3.org/2000/svg" xmlns:xlink="http://www.w3.org/1999/xlink"><clipPath id="a"><path d="m0 0h24v24h-24z"/></clipPath><g clip-path="url(#a)"><circle cx="12" cy="12" fill="currentColor" r="12"/><path d="m12.0018 7.8978c-2.27018 0-4.1013 1.83153-4.1013 4.1022 0 2.2707 1.83112 4.1022 4.1013 4.1022 2.2701 0 4.1013-1.8315 4.1013-4.1022 0-2.27067-1.8312-4.1022-4.1013-4.1022zm0 6.7692c-1.4671 0-2.66638-1.1961-2.66638-2.667s1.19578-2.66696 2.66638-2.66696 2.6664 1.19606 2.6664 2.66696-1.1994 2.667-2.6664 2.667zm5.2256-6.937c0 .53197-.4283.95682-.9566.95682-.5318 0-.9566-.42842-.9566-.95682 0-.52839.4284-.95682.9566-.95682.5283 0 .9566.42843.9566.95682zm2.7164.9711c-.0607-1.28171-.3534-2.41704-1.2922-3.35244-.9351-.93541-2.0702-1.22816-3.3517-1.29243-1.3206-.07497-5.2792-.07497-6.59984 0-1.27786.0607-2.41294.35345-3.35171 1.28886-.93876.9354-1.22788 2.07073-1.29213 3.35244-.07496 1.32097-.07496 5.28037 0 6.60137.06068 1.2817.35337 2.417 1.29213 3.3524.93877.9354 2.07028 1.2282 3.35171 1.2925 1.32064.0749 5.27924.0749 6.59984 0 1.2815-.0607 2.4166-.3535 3.3517-1.2925.9352-.9354 1.2279-2.0707 1.2922-3.3524.0749-1.321.0749-5.2768 0-6.5978zm-1.7062 8.0152c-.2784.6997-.8174 1.2388-1.5206 1.5209-1.053.4177-3.5516.3213-4.7152.3213-1.1637 0-3.66583.0928-4.71524-.3213-.69961-.2785-1.2386-.8176-1.52058-1.5209-.41763-1.0532-.32125-3.5524-.32125-4.7163s-.09281-3.66663.32125-4.71628c.27841-.69976.8174-1.23887 1.52058-1.52092 1.05298-.41771 3.55154-.32132 4.71524-.32132 1.1636 0 3.6658-.09282 4.7152.32132.6996.27848 1.2386.81759 1.5206 1.52092.4176 1.05322.3212 3.55238.3212 4.71628s.0964 3.6666-.3212 4.7163z" fill="#fff"/><path clip-rule="evenodd" d="m16.2919 5.71489c.0132-.05534.0644-.29563.079-.35243.0381-.15146.0556-.29272.1113-.42233.0687-.15728.1653-.28981.2605-.42233.0687-.09757.1361-.18932.218-.27233.019-.01893.0366-.03932.0556-.05825.0966-.07136.2005-.14127.3176-.19369.0703-.03059.139-.0568.2093-.08738.101-.04515.1976-.09175.3161-.12524.1186-.03496.3015-.03204.4156.00291.0469.01311.0879.02039.1303.03932.1932.08301.3278.22282.4361.39175.0776.12233.1303.2665.1815.4165.0117.03932.0146.08156.0234.12233.0059.02913.0029.08301-.0029.10631-.0059.02767-.0015.04952-.0103.07719-.0102.04223-.0219.08883-.0365.12815-.022.07136-.0322.13835-.0557.2068-.0497.14854-.098.3-.1566.43835-.0922.22281-.18.43689-.2985.63204-.0249.04223-.0425.08738-.0659.1267-.0161.02475-.0234.05242-.0366.07718-.0248.05097-.0526.1034-.0819.15146-.019.03349-.0293.0699-.0512.1034-.0469.07718-.0864.15873-.1347.23446-.0541.08447-.1156.16311-.1741.24175-.06.07864-.1405.14272-.2093.21116-.0659.06699-.1332.13544-.202.20389-.041.04077-.0863.07864-.1229.12524-.0146.01311-.0278.02621-.0425.03932-.0409.04078-.0848.08301-.12.12816-.0146.0131-.0278.02621-.0409.03932-.0293.02767-.0586.05825-.082.09029-.019.01747-.038.03641-.0585.05388-.0439.05971-.1069.10777-.1522.16748-.0176.01602-.0352.03204-.0513.04805-.0219.02767-.0453.05389-.0702.07865-.0103.00873-.022.01893-.0337.02912-.041.0568-.0761.10049-.1317.14272-.0205.02039-.0834.09175-.1024.11214-.0513.06262-.0483.0699-.0952.1165-.0556.05534-.1053.11651-.1595.17184-.0161.01602-.0512.05243-.0702.05102-.0337-.02189-.0571-.0583-.0849-.08742-.0542-.0568-.1229-.09758-.2078-.16748-.0293-.02912-.0571-.05679-.0864-.08446-.0761-.09758-.1815-.17039-.2576-.26942-.0234-.03204-.0585-.05389-.0834-.08738-.0292-.02767-.0585-.05534-.0878-.08447-.0336-.04369-.0761-.08301-.1141-.12233-.0205-.01893-.0235-.02475-.0439-.04369-.0118-.01456-.0249-.0364-.0352-.04951-.0219-.0335-.057-.05971-.0805-.0932-.079-.1034-.1683-.19515-.2473-.3-.0146-.01894-.0366-.0335-.0512-.05243-.0629-.08447-.1361-.15874-.1947-.2432-.0556-.07719-.1039-.1602-.1551-.24321-.0117-.02039-.0161-.04223-.0307-.06262-.0264-.04369-.0527-.0932-.0747-.14126-.06-.1369-.1156-.27525-.177-.41359-.0835-.18787-.1698-.36845-.2313-.58107-.0205-.07136-.0322-.19369-.0249-.2767.0044-.04078-.0029-.08301.0059-.11942.0015-.01893.0015-.03495.0029-.05388.0088-.05389.019-.10777.0264-.16165.0424-.15.0848-.29127.1434-.42379.06-.13544.1449-.25485.2283-.36699.0249-.03495.0498-.06699.0776-.09612.1214-.12378.2429-.20971.4375-.26359.0527-.01456.1464-.03204.2137-.01456.0366.00582.0732.0131.1112.01893.1318.04515.2444.10194.3469.17476.1785.12524.3073.29417.4244.48058.0556.08738.1186.17767.1625.27816.0468.10485.0848.21844.1229.33349.0293.08155.0366.16893.0585.25777" fill="#e40047" fill-rule="evenodd"/></g></svg>