<svg fill="none" height="24" viewBox="0 0 24 24" width="24" xmlns="http://www.w3.org/2000/svg" xmlns:xlink="http://www.w3.org/1999/xlink"><clipPath id="a"><path d="m0 0h24v24h-24z"/></clipPath><g clip-path="url(#a)"><circle cx="12" cy="12" fill="#000" r="12"/><path d="m13.5158 10.7757 5.9524-6.7757h-1.41l-5.1707 5.88203-4.12667-5.88203h-4.76083l6.2417 8.8955-6.2417 7.1045h1.41002l5.45678-6.213 4.359 6.213h4.7609m-14.06777-14.95873h2.1662l9.97197 13.96863h-2.1667" fill="#fff"/><path clip-rule="evenodd" d="m17.0413 13.2365c.0167-.062.0776-.3376.0943-.4027.0441-.1726.067-.3331.1339-.4815.0806-.1786.1963-.3315.3088-.4814.0822-.1136.1628-.218.2617-.3119.0228-.0212.0426-.0439.0654-.0666.1157-.0818.2389-.162.3804-.2211.0821-.0348.1643-.0651.2495-.0999.1202-.0515.2358-.1045.3758-.1423.143-.0394.359-.0379.4975.0015.0547.0167.105.0242.1536.0454.2313.0954.3926.2544.5219.4482.0928.1393.1552.3043.216.4754.0152.0439.0167.0923.0274.1408.0076.0318.003.0923-.003.1196-.0077.0318-.0016.0575-.0122.0893-.0122.0469-.0259.1015-.0426.1469-.0259.0802-.0396.1574-.067.2362-.0593.168-.1186.3406-.1871.4996-.1111.2543-.2145.4996-.356.7222-.0289.0469-.0502.0984-.0791.1438-.0183.0288-.0274.0591-.0441.0878-.0305.0576-.0624.1181-.0959.1726-.0243.0379-.0365.0803-.0624.1196-.0547.0863-.1034.1802-.1597.2665-.0654.0969-.1384.1862-.2084.2771-.0715.0878-.1689.162-.2495.2392-.0792.0772-.1598.1544-.2404.2331-.0502.047-.105.0909-.1476.1439-.0167.0136-.0335.0303-.0517.0439-.0472.0469-.1004.0954-.143.1468-.0168.0152-.0335.0303-.0487.0439-.035.0334-.07.0682-.0989.1045-.0213.0197-.0441.0409-.0685.0606-.0532.0696-.1262.1226-.1825.1907-.0198.0197-.0411.0379-.0609.0561-.0259.0318-.0532.0605-.0837.0893-.0121.0106-.0258.0212-.0395.0333-.0487.0651-.0913.1151-.1583.162-.0228.0242-.0988.106-.1217.1287-.0608.0727-.0563.0802-.1141.1332-.0654.0636-.1247.1333-.1901.1953-.0183.0182-.0594.0621-.0837.0591-.0396-.0258-.067-.0666-.102-.0999-.0623-.0636-.146-.1106-.2464-.1908-.0365-.0333-.0685-.0651-.1035-.0954-.0897-.112-.2175-.1953-.3073-.3089-.0274-.0363-.07-.062-.1004-.0999-.035-.0318-.07-.0636-.1035-.0954-.0395-.0499-.0912-.0954-.1354-.1393-.0243-.0212-.0304-.0302-.0532-.0499-.0137-.0182-.0304-.0424-.0426-.0576-.0259-.0378-.067-.0681-.0959-.1059-.0943-.1181-.2008-.2241-.2951-.3422-.0167-.0212-.0441-.0394-.0624-.0606-.073-.0953-.1613-.1801-.2312-.277-.0655-.0894-.1233-.1847-.1857-.2771-.0136-.0242-.0182-.0484-.0349-.0727-.032-.0499-.0639-.106-.0898-.1605-.0715-.1574-.1385-.3149-.2115-.4723-.0989-.215-.2038-.4209-.2769-.6632-.0243-.0832-.038-.2225-.0289-.3164.0046-.0469-.003-.0954.0076-.1363 0-.0212 0-.0408.0015-.062.0122-.0606.0229-.1227.0335-.1848.0502-.171.1004-.3315.1704-.4829.0715-.1545.1719-.2907.2739-.4194.0274-.0394.0578-.0772.0912-.1105.1461-.1408.2891-.2393.5219-.2998.0639-.0182.1749-.0364.2556-.0182.0441.0091.0867.0152.1323.0242.1583.05.2921.1151.4139.1984.213.1423.3666.3346.5066.5481.0669.0999.1415.2043.1932.3179.0578.1196.1019.2483.1476.38.035.0939.0426.1938.07.2953" fill="#e40047" fill-rule="evenodd"/></g></svg>