<svg fill="none" height="24" viewBox="0 0 24 24" width="24" xmlns="http://www.w3.org/2000/svg" xmlns:xlink="http://www.w3.org/1999/xlink"><clipPath id="a"><path d="m0 0h24v24h-24z"/></clipPath><g clip-path="url(#a)"><circle cx="12" cy="12" fill="currentColor" r="12"/><path d="m8 6.50075c-.0002.39782-.15842.77928-.43987 1.06044s-.66306.43901-1.06088.43881-.77928-.15842-1.06044-.43987-.43901-.66306-.43881-1.06088.15843-.77928.43987-1.06044c.28145-.28116.66306-.43901 1.06088-.43881s.77928.15843 1.06044.43987c.28116.28145.43901.66306.43881 1.06088zm.045 2.61h-3v9.38995h3zm4.74 0h-2.985v9.38995h2.955v-4.9274c0-2.745 3.5775-3 3.5775 0v4.9274h2.9625v-5.9474c0-4.62755-5.295-4.45505-6.54-2.1825z" fill="#fff"/><path clip-rule="evenodd" d="m17.0413 7.23653c.0167-.06208.0776-.33763.0943-.40273.0441-.1726.067-.33309.1339-.48146.0806-.17865.1963-.33157.3088-.48146.0822-.11355.1628-.21802.2617-.31189.0228-.0212.0426-.04391.0654-.06662.1157-.08175.2389-.162.3804-.22104.0821-.03483.1643-.06511.2495-.09993.1202-.05148.2358-.10447.3758-.14232.143-.03936.359-.03785.4975.00152.0547.01665.105.02422.1536.04542.2313.09538.3926.25435.5219.44815.0928.13929.1552.30432.216.4754.0152.04391.0167.09236.0274.14081.0076.03179.003.09235-.003.1196-.0077.0318-.0016.05754-.0122.08933-.0122.04694-.0259.10144-.0426.14686-.0259.08024-.0396.15746-.067.23619-.0593.16806-.1186.34065-.1871.49963-.1111.25435-.2145.49962-.356.72219-.0289.04693-.0502.09841-.0791.14383-.0183.02877-.0274.05905-.0441.08781-.0305.05754-.0624.1181-.0959.1726-.0243.03785-.0365.08024-.0624.11961-.0547.0863-.1034.18017-.1597.26647-.0654.09689-.1384.18622-.2084.27706-.0715.08782-.1689.162-.2495.23922-.0792.07721-.1598.15443-.2404.23316-.0502.04693-.105.09084-.1476.14383-.0167.01363-.0335.03028-.0517.04391-.0472.04693-.1004.09538-.143.14686-.0168.01514-.0335.03028-.0487.0439-.035.03331-.07.06813-.0989.10447-.0213.01968-.0441.04089-.0685.06059-.0532.0696-.1262.1226-.1825.1907-.0198.0197-.0411.0379-.0609.0561-.0259.0318-.0532.0605-.0837.0893-.0121.0106-.0258.0212-.0395.0333-.0487.0651-.0913.1151-.1583.162-.0228.0242-.0988.106-.1217.1287-.0608.0727-.0563.0802-.1141.1332-.0654.0636-.1247.1333-.1901.1953-.0183.0182-.0594.0621-.0837.0591-.0396-.0258-.067-.0666-.102-.0999-.0623-.0636-.146-.1106-.2464-.1908-.0365-.0333-.0685-.0651-.1035-.0954-.0897-.112-.2175-.1953-.3073-.3089-.0274-.0363-.07-.062-.1004-.0999-.035-.0318-.07-.0636-.1035-.0954-.0395-.0499-.0912-.0954-.1354-.1393-.0243-.0212-.0304-.0302-.0532-.0499-.0137-.01819-.0304-.04241-.0426-.05755-.0259-.03785-.067-.06814-.0959-.10599-.0943-.11809-.2008-.22407-.2951-.34217-.0167-.02119-.0441-.03936-.0624-.06056-.073-.09538-.1613-.18017-.2312-.27706-.0655-.08933-.1233-.18471-.1857-.27707-.0136-.02422-.0182-.04845-.0349-.07267-.032-.04996-.0639-.10598-.0898-.16049-.0715-.15746-.1385-.31492-.2115-.47237-.0989-.215-.2038-.4209-.2769-.66315-.0243-.08327-.038-.22256-.0289-.31643.0046-.04693-.003-.09538.0076-.13626 0-.0212 0-.04088.0015-.06207.0122-.06056.0229-.12264.0335-.18472.0502-.17108.1004-.33157.1704-.48297.0715-.15443.1719-.29069.2739-.41938.0274-.03937.0578-.07722.0912-.11053.1461-.1408.2891-.23921.5219-.29977.0639-.01817.1749-.03634.2556-.01817.0441.00908.0867.01514.1323.02422.1583.04996.2921.11507.4139.19834.213.14232.3666.3346.5066.54808.0669.09992.1415.20439.1932.31794.0578.11961.1019.2483.1476.38002.035.09387.0426.1938.07.29524" fill="#e40047" fill-rule="evenodd"/></g></svg>