<svg fill="none" height="24" viewBox="0 0 24 24" width="24" xmlns="http://www.w3.org/2000/svg"><circle cx="12" cy="12" fill="#000" r="12"/><path d="m15.1742 5.32031h1.8258v-3.17969c-.3144-.04296-1.3977-.14062-2.6591-.14062-2.6326 0-4.4356 1.65625-4.4356 4.69922v2.80078h-2.9053v3.5547h2.9053v8.9453h3.5606v-8.9453h2.7879l.4432-3.5547h-3.2311v-2.44922c0-1.02734.2765-1.73047 1.7083-1.73047z" fill="#fff"/><path clip-rule="evenodd" d="m8.89972 15.7273c.01369-.056.06542-.2998.08063-.3558.03651-.1529.05477-.2952.11258-.4254.06847-.159.16584-.2937.26168-.427.06847-.0984.13693-.1922.22061-.2755.01825-.0182.03651-.0379.05477-.0575.09889-.0727.20386-.1439.32253-.1969.06998-.0302.13848-.056.20998-.0878.1034-.0454.2008-.0923.3195-.1272.1202-.0333.3027-.0317.4199.0031.0456.0151.0882.0212.1308.0393.1947.0848.3317.2256.4397.3967.0791.1226.1324.268.1826.4209.0137.0394.0152.0818.0243.1241.0061.0288.003.0818-.003.106-.0061.0288-.0016.05-.0092.0772-.0121.0424-.0228.0909-.0365.1302-.0228.0712-.0335.1393-.0578.209-.0502.1499-.0989.3028-.1582.4421-.0928.2256-.1811.4421-.3013.6389-.0243.0409-.041.0878-.0669.1272-.0152.0257-.0228.0529-.0365.0787-.0244.0499-.0517.1029-.0822.1514-.0197.0348-.0289.0711-.0517.106-.0472.0772-.0882.1589-.1354.2361-.0548.0848-.1171.1651-.1765.2438-.0593.0787-.1415.1438-.2099.212-.0685.0681-.1354.1377-.2039.2059-.0426.0408-.0882.0802-.1248.1271-.0136.0137-.02886.0273-.04255.0394-.04108.0409-.08672.0848-.12171.1302-.01369.0121-.02739.0258-.04108.0394-.02891.0287-.05933.059-.08368.0908-.01825.0167-.03803.0364-.05781.0545-.04564.0606-.10802.1075-.15366.1681-.01826.0166-.03651.0333-.05325.0499-.0213.0273-.04412.0545-.06998.0788-.01065.0091-.0213.0196-.03347.0302-.04108.0561-.0776.1015-.13389.1424-.01978.0212-.08367.0938-.10345.1135-.05173.0636-.04716.0712-.09585.1181-.05477.056-.1065.1181-.16127.1726-.01521.0167-.0502.0545-.06998.0515-.03347-.0212-.05781-.0576-.08672-.0878-.05325-.056-.12323-.0969-.20843-.1696-.03043-.0288-.05934-.056-.08824-.0833-.07607-.0999-.18257-.1726-.26016-.2725-.02282-.0318-.05934-.0545-.08368-.0893-.0289-.0273-.05933-.056-.08824-.0848-.03347-.0424-.07607-.0833-.1141-.1226-.0213-.0182-.02587-.0258-.04565-.0439-.01065-.0167-.02586-.0364-.03499-.05-.02282-.0333-.05781-.0621-.08215-.0939-.07912-.106-.1704-.1983-.24951-.3028-.01369-.0197-.03652-.0348-.05173-.0545-.06238-.0832-.13692-.1589-.19626-.2437-.05477-.0788-.10498-.1635-.1567-.2453-.01065-.0212-.01674-.0439-.03043-.0651-.02739-.0424-.05325-.0939-.07455-.1408-.06238-.1393-.11867-.2801-.17952-.4179-.08368-.1907-.17192-.3724-.2343-.5859-.0213-.0742-.03195-.1968-.02434-.2801.00304-.0424-.00304-.0848.00608-.1211 0-.0182.00001-.0363.00153-.0545.01065-.053.01977-.109.0289-.1635.0426-.1514.08368-.2922.14301-.427.06086-.1362.14606-.2573.23126-.3709.02434-.0348.0502-.0681.07759-.0969.12323-.1257.24494-.212.4412-.2665.05477-.0151.1491-.0318.21604-.0151.03803.0076.07455.0136.11258.0212.13389.0439.24647.1014.34992.1756.18105.1257.31037.2968.42904.4845.05629.0878.11867.1802.16279.2816.04868.106.08672.2195.12475.3346.02891.0833.03651.1726.05933.2619" fill="#e40047" fill-rule="evenodd"/></svg>