<svg width="24" height="24" viewBox="0 0 24 24" fill="none" xmlns="http://www.w3.org/2000/svg">
<g clip-path="url(#clip0_2128_24076)">
<circle cx="12" cy="12" r="12" fill="black"/>
<path d="M12.0018 7.8978C9.73162 7.8978 7.9005 9.72933 7.9005 12C7.9005 14.2707 9.73162 16.1022 12.0018 16.1022C14.2719 16.1022 16.1031 14.2707 16.1031 12C16.1031 9.72933 14.2719 7.8978 12.0018 7.8978ZM12.0018 14.667C10.5347 14.667 9.33542 13.4709 9.33542 12C9.33542 10.5291 10.5312 9.33304 12.0018 9.33304C13.4724 9.33304 14.6682 10.5291 14.6682 12C14.6682 13.4709 13.4688 14.667 12.0018 14.667V14.667ZM17.2274 7.73C17.2274 8.26197 16.7991 8.68682 16.2708 8.68682C15.739 8.68682 15.3142 8.2584 15.3142 7.73C15.3142 7.20161 15.7426 6.77318 16.2708 6.77318C16.7991 6.77318 17.2274 7.20161 17.2274 7.73ZM19.9438 8.7011C19.8831 7.41939 19.5904 6.28406 18.6516 5.34866C17.7165 4.41325 16.5814 4.1205 15.2999 4.05623C13.9793 3.98126 10.0207 3.98126 8.70006 4.05623C7.4222 4.11693 6.28712 4.40968 5.34835 5.34509C4.40959 6.28049 4.12047 7.41582 4.05622 8.69753C3.98126 10.0185 3.98126 13.9779 4.05622 15.2989C4.1169 16.5806 4.40959 17.7159 5.34835 18.6513C6.28712 19.5867 7.41863 19.8795 8.70006 19.9438C10.0207 20.0187 13.9793 20.0187 15.2999 19.9438C16.5814 19.8831 17.7165 19.5903 18.6516 18.6513C19.5868 17.7159 19.8795 16.5806 19.9438 15.2989C20.0187 13.9779 20.0187 10.0221 19.9438 8.7011V8.7011ZM18.2376 16.7163C17.9592 17.416 17.4202 17.9551 16.717 18.2372C15.664 18.6549 13.1654 18.5585 12.0018 18.5585C10.8381 18.5585 8.33597 18.6513 7.28656 18.2372C6.58695 17.9587 6.04796 17.4196 5.76598 16.7163C5.34835 15.6631 5.44473 13.1639 5.44473 12C5.44473 10.8361 5.35192 8.33337 5.76598 7.28372C6.0444 6.58396 6.58338 6.04485 7.28656 5.7628C8.33954 5.34509 10.8381 5.44148 12.0018 5.44148C13.1654 5.44148 15.6676 5.34866 16.717 5.7628C17.4166 6.04128 17.9556 6.58039 18.2376 7.28372C18.6552 8.33694 18.5588 10.8361 18.5588 12C18.5588 13.1639 18.6552 15.6666 18.2376 16.7163Z" fill="white"/>
<path fill-rule="evenodd" clip-rule="evenodd" d="M16.2919 5.71486C16.3051 5.65952 16.3563 5.41923 16.3709 5.36243C16.409 5.21097 16.4265 5.06971 16.4822 4.9401C16.5509 4.78282 16.6475 4.65029 16.7427 4.51777C16.8114 4.4202 16.8788 4.32845 16.9607 4.24544C16.9797 4.22651 16.9973 4.20612 17.0163 4.18719C17.1129 4.11583 17.2168 4.04592 17.3339 3.9935C17.4042 3.96291 17.4729 3.9367 17.5432 3.90612C17.6442 3.86097 17.7408 3.81437 17.8593 3.78088C17.9779 3.74592 18.1608 3.74884 18.2749 3.78379C18.3218 3.7969 18.3628 3.80418 18.4052 3.82311C18.5984 3.90612 18.733 4.04592 18.8413 4.21486C18.9189 4.33719 18.9716 4.48136 19.0228 4.63136C19.0345 4.67068 19.0374 4.71291 19.0462 4.75369C19.0521 4.78282 19.0491 4.8367 19.0433 4.86C19.0374 4.88767 19.0418 4.90952 19.033 4.93719C19.0228 4.97942 19.0111 5.02602 18.9965 5.06534C18.9745 5.1367 18.9643 5.20369 18.9408 5.27214C18.8911 5.42068 18.8428 5.57214 18.7842 5.71049C18.692 5.9333 18.6042 6.14738 18.4857 6.34253C18.4608 6.38476 18.4432 6.4299 18.4198 6.46923C18.4037 6.49398 18.3964 6.52165 18.3832 6.54641C18.3584 6.59738 18.3306 6.64981 18.3013 6.69787C18.2823 6.73136 18.272 6.76777 18.2501 6.80126C18.2032 6.87845 18.1637 6.96 18.1154 7.03573C18.0613 7.1202 17.9998 7.19884 17.9413 7.27748C17.8813 7.35612 17.8008 7.4202 17.732 7.48864C17.6661 7.55563 17.5988 7.62408 17.53 7.69253C17.489 7.7333 17.4437 7.77117 17.4071 7.81777C17.3925 7.83088 17.3793 7.84398 17.3646 7.85709C17.3237 7.89787 17.2798 7.9401 17.2446 7.98525C17.23 7.99835 17.2168 8.01146 17.2037 8.02457C17.1744 8.05224 17.1451 8.08282 17.1217 8.11486C17.1027 8.13233 17.0837 8.15126 17.0632 8.16874C17.0193 8.22845 16.9563 8.27651 16.911 8.33622C16.8934 8.35224 16.8758 8.36825 16.8597 8.38427C16.8378 8.41194 16.8144 8.43816 16.7895 8.46292C16.7792 8.47165 16.7675 8.48185 16.7558 8.49204C16.7148 8.54884 16.6797 8.59253 16.6241 8.63476C16.6036 8.65515 16.5407 8.72651 16.5217 8.7469C16.4704 8.80952 16.4734 8.8168 16.4265 8.8634C16.3709 8.91874 16.3212 8.9799 16.267 9.03524C16.2509 9.05126 16.2158 9.08767 16.1968 9.08626C16.1631 9.06437 16.1397 9.02796 16.1119 8.99884C16.0577 8.94204 15.989 8.90126 15.9041 8.83136C15.8748 8.80223 15.847 8.77457 15.8177 8.7469C15.7416 8.64932 15.6362 8.57651 15.5601 8.47748C15.5367 8.44544 15.5016 8.42359 15.4767 8.3901C15.4475 8.36243 15.4182 8.33476 15.3889 8.30563C15.3553 8.26194 15.3128 8.22262 15.2748 8.1833C15.2543 8.16437 15.2513 8.15855 15.2309 8.13961C15.2191 8.12505 15.206 8.10321 15.1957 8.0901C15.1738 8.0566 15.1387 8.03039 15.1152 7.9969C15.0362 7.8935 14.9469 7.80175 14.8679 7.6969C14.8533 7.67796 14.8313 7.6634 14.8167 7.64447C14.7538 7.56 14.6806 7.48573 14.622 7.40126C14.5664 7.32408 14.5181 7.24107 14.4669 7.15806C14.4552 7.13767 14.4508 7.11583 14.4362 7.09544C14.4098 7.05175 14.3835 7.00224 14.3615 6.95418C14.3015 6.81728 14.2459 6.67893 14.1845 6.54058C14.101 6.35272 14.0147 6.17214 13.9532 5.95952C13.9327 5.88816 13.921 5.76583 13.9283 5.68282C13.9327 5.64204 13.9254 5.59981 13.9342 5.5634C13.9357 5.54447 13.9357 5.52845 13.9371 5.50952C13.9459 5.45563 13.9561 5.40175 13.9635 5.34787C14.0059 5.19787 14.0483 5.0566 14.1069 4.92408C14.1669 4.78864 14.2518 4.66923 14.3352 4.55709C14.3601 4.52214 14.385 4.4901 14.4128 4.46097C14.5342 4.33719 14.6557 4.25126 14.8503 4.19738C14.903 4.18282 14.9967 4.16534 15.064 4.18282C15.1006 4.18864 15.1372 4.19592 15.1752 4.20175C15.307 4.24689 15.4196 4.30369 15.5221 4.37651C15.7006 4.50175 15.8294 4.67068 15.9465 4.85709C16.0021 4.94447 16.0651 5.03476 16.109 5.13524C16.1558 5.2401 16.1938 5.35369 16.2319 5.46874C16.2612 5.55029 16.2685 5.63767 16.2904 5.72651" fill="#E40047"/>
</g>
<defs>
<clipPath id="clip0_2128_24076">
<rect width="24" height="24" fill="white"/>
</clipPath>
</defs>
</svg>
