<svg fill="none" height="24" viewBox="0 0 24 24" width="24" xmlns="http://www.w3.org/2000/svg" xmlns:xlink="http://www.w3.org/1999/xlink"><clipPath id="a"><path d="m0 0h24v24h-24z"/></clipPath><g clip-path="url(#a)"><circle cx="12" cy="12" fill="#000" r="12"/><path d="m12.5 2c-4.275 0-8.5 2.74089-8.5 7.17681 0 2.82099 1.65 4.42389 2.65 4.42389.4125 0 .65-1.106.65-1.4185 0-.3727-.9875-1.1661-.9875-2.71688 0-3.22175 2.55-5.50582 5.85-5.50582 2.8375 0 4.9375 1.55076 4.9375 4.39985 0 2.12775-.8875 6.11895-3.7625 6.11895-1.0375 0-1.925-.7213-1.925-1.7552 0-1.5147 1.1-2.98128 1.1-4.54407 0-2.65274-3.9125-2.17188-3.9125 1.03384 0 .6732.0875 1.41853.4 2.03163-.575 2.3802-1.75 5.9266-1.75 8.3789 0 .7574.1125 1.5027.1875 2.2601.14167.1523.07083.1362.2875.0601 2.1-2.7649 2.025-3.3059 2.975-6.9244.5125.9377 1.8375 1.4426 2.8875 1.4426 4.425 0 6.4125-4.1474 6.4125-7.88606 0-3.97911-3.575-6.57574-7.5-6.57574z" fill="#fff"/><path clip-rule="evenodd" d="m16.3753 10.2968c.0137-.056.0654-.29978.0806-.3558.0365-.15292.0548-.29524.1126-.42544.0685-.15897.1659-.29372.2617-.42696.0685-.09841.1369-.19228.2206-.27555.0183-.01817.0365-.03785.0548-.05753.0989-.07267.2038-.14383.3225-.19682.07-.03028.1385-.05602.21-.08782.1019-.04542.2008-.09235.3195-.12718.1201-.0333.3027-.03179.4199.00303.0456.01514.0882.0212.1308.03937.1947.08478.3317.22559.4397.39667.0791.12264.1323.26798.1825.4209.0137.03936.0153.08176.0244.12415.0061.02877.003.08176-.0031.10598-.006.02877-.0015.04996-.0091.07873-.0122.04088-.0228.08933-.0365.12869-.0228.07116-.0335.13929-.0578.20894-.0502.14984-.0989.30284-.1582.44214-.0928.2255-.1811.442-.3013.6389-.0243.0408-.041.0878-.0669.1271-.0152.0258-.0228.053-.0365.0788-.0244.0499-.0518.1029-.0822.1514-.0198.0348-.0289.0711-.0517.106-.0472.0772-.0882.1589-.1354.2361-.0548.0848-.1172.1651-.1765.2438s-.1415.1438-.2099.212c-.0685.0681-.1354.1377-.2039.2059-.0426.0409-.0883.0802-.1248.1272-.0137.0136-.0289.0272-.0426.0393-.041.0409-.0867.0848-.1217.1302-.0137.0121-.0274.0258-.0411.0394-.0289.0288-.0593.059-.0836.0908-.0183.0167-.0381.0364-.0578.0545-.0457.0606-.1081.109-.1537.1681-.0183.0166-.0365.0333-.0533.05-.0213.0272-.0441.0545-.0699.0787-.0107.0091-.0213.0197-.0335.0303-.0411.056-.0776.1014-.1339.1423-.0198.0212-.0837.0939-.1034.1135-.0518.0636-.0472.0712-.0959.1181-.0548.056-.1065.1181-.1613.1726-.0152.0167-.0502.0545-.0699.0515-.0335-.0212-.0579-.0575-.0868-.0878-.0532-.056-.1232-.0969-.2084-.1696-.0304-.0287-.0593-.056-.0882-.0832-.0761-.1-.1826-.1726-.2602-.2726-.0228-.0318-.0593-.0545-.0837-.0893-.0289-.0273-.0593-.056-.0882-.0848-.0335-.0424-.0761-.0833-.1141-.1226-.0213-.0182-.0259-.0258-.0457-.0439-.0106-.0167-.0258-.0364-.035-.05-.0228-.0333-.0578-.0621-.0821-.0939-.0791-.1059-.1704-.1983-.2495-.3028-.0137-.0196-.0365-.0348-.0517-.0545-.0624-.0832-.137-.1589-.1963-.2437-.0548-.0788-.105-.1635-.1567-.2453-.0107-.0212-.0167-.0439-.0304-.0651-.0274-.0424-.0533-.0939-.0746-.1408-.0624-.1393-.1187-.2801-.1795-.4179-.0837-.1907-.1719-.3724-.2343-.5859-.0213-.0742-.032-.1968-.0243-.2801.003-.0424-.0031-.0848.006-.1211 0-.0182 0-.0364.0016-.0545.0106-.053.0197-.10904.0289-.16354.0426-.1514.0836-.29221.143-.42696.0608-.13626.146-.25738.2312-.37093.0244-.03482.0502-.06813.0776-.0969.1233-.12566.245-.21196.4412-.26647.0548-.01514.1491-.03179.2161-.01514.038.00757.0745.01363.1125.0212.1339.04391.2465.10144.35.17563.181.12566.3103.29674.429.48448.0563.08782.1187.18017.1628.28161.0487.10598.0867.21954.1247.33462.029.0833.0366.1726.0594.2619" fill="#e40047" fill-rule="evenodd"/></g></svg>