<svg fill="none" height="24" viewBox="0 0 24 24" width="24" xmlns="http://www.w3.org/2000/svg" xmlns:xlink="http://www.w3.org/1999/xlink"><clipPath id="a"><path d="m0 0h24v24h-24z"/></clipPath><g clip-path="url(#a)"><circle cx="12" cy="12" fill="currentColor" r="12"/><path d="m10.321 10.016c-.27-.18-1.166-.802-1.166-.802.756-1.081 1.753-1.502 3.132-1.502.975 0 1.803.327 2.394.948s.928 1.509 1.005 2.644c.328.138.6297.2993.905.484 1.109.745 1.719 1.86 1.719 3.137 0 2.716-2.226 5.075-6.256 5.075-3.46 0-7.054-2.013-7.054-8.006 0-5.96 3.482-7.994 7.044-7.994 1.646 0 5.506.243 6.956 5.036l-1.36.353c-1.124-3.415-3.477-3.959-5.634-3.959-3.565 0-5.582 2.171-5.582 6.79 0 4.143 2.254 6.343 5.63 6.343 2.777 0 4.847-1.443 4.847-3.556 0-1.438-1.208-2.127-1.27-2.127-.236 1.234-.868 3.31-3.644 3.31-1.618 0-3.013-1.118-3.013-2.582 0-2.09 1.984-2.847 3.55-2.847.586 0 1.294.04 1.663.114 0-.637-.54-1.728-1.9-1.728-1.25 0-1.566.405-1.967.868zm2.395 2.174c-2.04 0-2.304.87-2.304 1.416 0 .878 1.043 1.168 1.6 1.168 1.02 0 2.067-.282 2.232-2.423-.5007-.1168-1.014-.1709-1.528-.161z" fill="#fff"/><path clip-rule="evenodd" d="m19.0413 9.23653c.0167-.06208.0776-.33763.0943-.40273.0441-.1726.067-.33309.1339-.48146.0806-.17865.1963-.33157.3088-.48146.0822-.11355.1628-.21802.2617-.31189.0228-.0212.0426-.04391.0654-.06662.1157-.08175.2389-.162.3804-.22104.0821-.03483.1643-.06511.2495-.09993.1202-.05148.2358-.10447.3758-.14232.143-.03936.359-.03785.4975.00152.0547.01665.105.02422.1536.04542.2313.09538.3926.25435.5219.44815.0928.13929.1552.30432.216.4754.0152.04391.0167.09236.0274.14081.0076.03179.003.09235-.003.1196-.0077.0318-.0016.05754-.0122.08933-.0122.04694-.0259.10144-.0426.14686-.0259.08024-.0396.15746-.067.23619-.0593.16806-.1186.34065-.1871.49963-.1111.25435-.2145.49962-.356.72219-.0289.04692-.0502.09842-.0791.14382-.0183.0288-.0274.0591-.0441.0878-.0305.0576-.0624.1181-.0959.1726-.0243.0379-.0365.0803-.0624.1196-.0547.0863-.1034.1802-.1597.2665-.0654.0969-.1384.1862-.2084.2771-.0715.0878-.1689.162-.2495.2392-.0792.0772-.1598.1544-.2404.2331-.0502.047-.105.0909-.1476.1439-.0167.0136-.0335.0303-.0517.0439-.0472.0469-.1004.0954-.143.1468-.0168.0152-.0335.0303-.0487.0439-.035.0334-.07.0682-.0989.1045-.0213.0197-.0441.0409-.0685.0606-.0532.0696-.1262.1226-.1825.1907-.0198.0197-.0411.0379-.0609.0561-.0259.0318-.0532.0605-.0837.0893-.0121.0106-.0258.0212-.0395.0333-.0487.0651-.0913.1151-.1583.162-.0228.0242-.0988.106-.1217.1287-.0608.0727-.0563.0802-.1141.1332-.0654.0636-.1247.1333-.1901.1953-.0183.0182-.0594.0621-.0837.0591-.0396-.0258-.067-.0666-.102-.0999-.0623-.0636-.146-.1106-.2464-.1908-.0365-.0333-.0685-.0651-.1035-.0954-.0897-.112-.2175-.1953-.3073-.3089-.0274-.0363-.07-.062-.1004-.0999-.035-.0318-.07-.0636-.1035-.0954-.0395-.0499-.0912-.0954-.1354-.1393-.0243-.0212-.0304-.0302-.0532-.0499-.0137-.0182-.0304-.0424-.0426-.0576-.0259-.0378-.067-.0681-.0959-.1059-.0943-.1181-.2008-.2241-.2951-.3422-.0167-.0212-.0441-.0394-.0624-.0606-.073-.0953-.1613-.1801-.2312-.277-.0655-.0894-.1233-.1847-.1857-.2771-.0136-.0242-.0182-.0484-.0349-.0727-.032-.0499-.0639-.106-.0898-.1605-.0715-.1574-.1385-.3149-.2115-.4723-.0989-.21503-.2038-.42093-.2769-.66318-.0243-.08327-.038-.22256-.0289-.31643.0046-.04693-.003-.09538.0076-.13626 0-.0212 0-.04088.0015-.06207.0122-.06056.0229-.12264.0335-.18472.0502-.17108.1004-.33157.1704-.48297.0715-.15443.1719-.29069.2739-.41938.0274-.03937.0578-.07722.0912-.11053.1461-.1408.2891-.23921.5219-.29977.0639-.01817.1749-.03634.2556-.01817.0441.00908.0867.01514.1323.02422.1583.04996.2921.11507.4139.19834.213.14232.3666.3346.5066.54808.0669.09992.1415.20439.1932.31794.0578.11961.1019.2483.1476.38002.035.09387.0426.1938.07.29524" fill="#e40047" fill-rule="evenodd"/></g></svg>