<svg fill="none" height="24" viewBox="0 0 24 24" width="24" xmlns="http://www.w3.org/2000/svg"><path clip-rule="evenodd" d="m12 22c5.5228 0 10-4.4772 10-10 0-5.52285-4.4772-10-10-10-5.52285 0-10 4.47715-10 10 0 5.5228 4.47715 10 10 10zm-2.0217-7.7151 6.3922-6.64069c.1138-.1183.2985-.1183.4123 0l.6874.71404c.1138.11833.1138.31014 0 .42844l-7.2857 7.56891c-.1139.1183-.29854.1183-.41242 0l-3.24222-3.3682c-.11388-.1184-.11388-.3102 0-.4285l.68732-.714c.1139-.1183.29853-.1183.41241 0z" fill="#000" fill-rule="evenodd"/></svg>