<svg fill="none" height="24" viewBox="0 0 24 24" width="24" xmlns="http://www.w3.org/2000/svg"><path d="m22 9.15909v9.02271c0 .5-.1749.928-.5246 1.2841s-.77.5341-1.2611.5341h-16.42859c-.49107 0-.91145-.178-1.26116-.5341-.3497-.3561-.52455-.7841-.52455-1.2841v-9.02271c.32738.37121.70313.70076 1.12723.98861 2.69345 1.8637 4.54241 3.1705 5.54688 3.9205.4241.3182.76823.5663 1.03236.7443.26414.178.61573.3598 1.05473.5455.4389.1856.8482.2784 1.2276.2784h.0224c.3794 0 .7887-.0928 1.2276-.2784.439-.1857.7906-.3675 1.0547-.5455.2642-.178.6083-.4261 1.0324-.7443 1.2649-.9318 3.1176-2.2387 5.558-3.9205.4241-.29543.7962-.62497 1.1161-.98861zm0-3.34091c0 .59849-.1823 1.17046-.5469 1.71591-.3646.54546-.8184 1.01136-1.3616 1.39773-2.7976 1.97728-4.5387 3.20838-5.2232 3.69318-.0744.053-.2325.1686-.4743.3466s-.4427.322-.6027.4318c-.16.1099-.3534.233-.5804.3693-.2269.1364-.4408.2387-.6417.3068-.2009.0682-.3869.1023-.558.1023h-.0224c-.1711 0-.3571-.0341-.558-.1023-.2009-.0681-.4148-.1704-.6417-.3068-.227-.1363-.4204-.2594-.5804-.3693-.16-.1098-.36086-.2538-.60267-.4318-.24182-.178-.39993-.2936-.47433-.3466-.67709-.4848-1.65179-1.1761-2.92411-2.0739-1.27232-.89769-2.03497-1.43746-2.28795-1.61928-.46131-.31818-.89657-.75568-1.3058-1.3125s-.61384-1.07387-.61384-1.55114c0-.59091.15439-1.08333.46317-1.47727s.74963-.59091 1.32254-.59091h16.42859c.4836 0 .9021.17803 1.2556.53409.3534.35606.5301.78409.5301 1.28409z" fill="#000"/></svg>