<svg   viewBox="0 0 24 24" fill="none" xmlns="http://www.w3.org/2000/svg">
<path fill-rule="evenodd" clip-rule="evenodd" d="M20.5714 9.14286H22V2H14.8571V3.42857H19.5608L10.07 12.92L11.08 13.93L20.5714 4.43857V9.14286ZM4.14286 22H18.4286C19.6429 22 20.5714 21.0714 20.5714 19.8571V12H19.1429V19.8571C19.1429 20.2857 18.8571 20.5714 18.4286 20.5714H4.14286C3.71429 20.5714 3.42857 20.2857 3.42857 19.8571V5.57143C3.42857 5.14286 3.71429 4.85714 4.14286 4.85714H12V3.42857H4.14286C2.92857 3.42857 2 4.35714 2 5.57143V19.8571C2 21.0714 2.92857 22 4.14286 22Z" fill="currentColor"/>
</svg>
