<svg   viewBox="0 0 24 24" fill="none" xmlns="http://www.w3.org/2000/svg">
<path d="M4.42406 19.7578C3.89097 19.7578 3.43497 19.568 3.0546 19.1884C2.87115 19.0109 2.72593 18.7979 2.62787 18.5622C2.52982 18.3266 2.481 18.0734 2.48442 17.8182V6.18183C2.48442 5.64874 2.67497 5.19274 3.0546 4.81237C3.23198 4.62904 3.44495 4.48389 3.68044 4.38584C3.91594 4.2878 4.16899 4.23891 4.42406 4.24219H10.2422L12.1819 6.18183H19.939C20.4728 6.18183 20.9295 6.37164 21.3091 6.75201C21.6895 7.13237 21.8793 7.58837 21.8786 8.12146V17.8182C21.8786 18.3513 21.6895 18.808 21.3099 19.1884C21.1327 19.3721 20.9196 19.5174 20.6839 19.6154C20.4482 19.7133 20.1949 19.7618 19.9397 19.7578H4.42333H4.42406Z" fill="currentColor"/>
</svg>
