<svg fill="none" height="24" viewBox="0 0 24 24" width="24" xmlns="http://www.w3.org/2000/svg"><path d="m12 2c-5.52419 0-10 4.47581-10 10 0 5.5242 4.47581 10 10 10 5.5242 0 10-4.4758 10-10 0-5.52419-4.4758-10-10-10zm7.7903 6.12903h-3.3266c-.3629-1.79032-.9718-3.31451-1.7419-4.39919 2.2177.73387 4.0403 2.33468 5.0685 4.39919zm-4.2419 3.87097c0 .9234-.0645 1.7823-.1734 2.5806h-6.75c-.10887-.7983-.17339-1.6572-.17339-2.5806s.06452-1.7823.17339-2.58065h6.75c.1089.79835.1734 1.65725.1734 2.58065zm-3.5484-8.70968c1.0847 0 2.4758 1.77823 3.1492 4.83871h-6.29839c.67338-3.06048 2.06449-4.83871 3.14919-4.83871zm-2.72177.43952c-.76613 1.08064-1.37904 2.60484-1.74194 4.39919h-3.32661c1.02822-2.06451 2.8508-3.66532 5.06855-4.39919zm-5.98791 8.27016c0-.8992.1371-1.7661.39113-2.58065h3.64919c-.10483.82665-.16935 1.68545-.16935 2.58065s.06048 1.754.16935 2.5806h-3.64919c-.25403-.8145-.39113-1.6814-.39113-2.5806zm.91936 3.871h3.32661c.3629 1.7903.97177 3.3145 1.74194 4.3992-2.21775-.7339-4.04033-2.3347-5.06855-4.3992zm7.79032 4.8387c-1.0847 0-2.47581-1.7782-3.14919-4.8387h6.29839c-.6734 3.0605-2.0645 4.8387-3.1492 4.8387zm2.7218-.4395c.7661-1.0807 1.379-2.6049 1.7419-4.3992h3.3266c-1.0282 2.0645-2.8508 3.6653-5.0685 4.3992zm1.9476-5.6896c.1048-.8266.1693-1.6854.1693-2.5806s-.0605-1.754-.1693-2.58065h3.6491c.2541.81455.3912 1.68145.3912 2.58065s-.1371 1.7661-.3912 2.5806z" fill="currentColor"/></svg>