<svg fill="none" height="24" viewBox="0 0 24 24" width="24" xmlns="http://www.w3.org/2000/svg"><path d="m12 3.29032c4.7831 0 8.7097 3.87399 8.7097 8.70968 0 4.8101-3.8956 8.7097-8.7097 8.7097-4.80823 0-8.70968-3.8937-8.70968-8.7097 0-4.80657 3.89524-8.70968 8.70968-8.70968zm0-1.29032c-5.52246 0-10 4.47915-10 10 0 5.5241 4.47754 10 10 10 5.5225 0 10-4.4759 10-10 0-5.52085-4.4775-10-10-10zm-1.4516 13.871h.4133l.0706-4.8387h-.4839c-.2672 0-.4839-.2167-.4839-.4839v-.3226c0-.26721.2167-.48386.4839-.48386h1.9355c.2672 0 .4838.21665.4838.48386v5.6452h.4839c.2672 0 .4839.2166.4839.4838v.3226c0 .2672-.2167.4839-.4839.4839h-2.9032c-.2672 0-.4839-.2167-.4839-.4839v-.3226c0-.2672.2167-.4838.4839-.4838zm1.4516-9.93955c-.7126 0-1.2903.5777-1.2903 1.29032s.5777 1.29033 1.2903 1.29033 1.2903-.57771 1.2903-1.29033-.5777-1.29032-1.2903-1.29032z" fill="currentColor"/></svg>