<svg fill="none" height="24" viewBox="0 0 24 24" width="24" xmlns="http://www.w3.org/2000/svg"><path d="m14.249 5.75c0 .99456-.3951 1.94839-1.0983 2.65165-.7033.70326-1.6571 1.09835-2.6517 1.09835-.99456 0-1.94839-.39509-2.65165-1.09835s-1.09835-1.65709-1.09835-2.65165.39509-1.94839 1.09835-2.65165 1.65709-1.09835 2.65165-1.09835c.9946 0 1.9484.39509 2.6517 1.09835.7032.70326 1.0983 1.65709 1.0983 2.65165zm-11.249 14.118c.03213-1.9676.83634-3.8438 2.23918-5.224 1.40284-1.3801 3.29191-2.1535 5.25982-2.1535 1.9679 0 3.857.7734 5.2598 2.1535 1.4029 1.3802 2.2071 3.2564 2.2392 5.224-2.3523 1.0798-4.9107 1.6366-7.499 1.632-2.676 0-5.216-.584-7.499-1.632z" stroke="currentColor" stroke-linecap="round" stroke-linejoin="round" stroke-width="1.3"/><path d="m17.5 22.5c2.7614 0 5-2.2386 5-5s-2.2386-5-5-5-5 2.2386-5 5 2.2386 5 5 5z" fill="#558f3f" stroke="#fff"/><g clip-rule="evenodd" fill="#fff" fill-rule="evenodd"><path d="m19.8557 16.1462c.0465.0464.0835.1016.1087.1623.0252.0608.0382.1259.0382.1917 0 .0657-.013.1309-.0382.1916s-.0622.1159-.1087.1624l-2.5 2.5c-.0939.0938-.2213.1466-.354.1466-.1328 0-.2601-.0528-.354-.1466-.0939-.0939-.1467-.2213-.1467-.354 0-.1328.0528-.2602.1467-.354l2.5-2.5c.0464-.0466.1016-.0835.1623-.1088.0608-.0252.1259-.0381.1917-.0381.0657 0 .1309.0129.1916.0381.0607.0253.1159.0622.1624.1088z"/><path d="m15.1478 17.1459c-.0466.0465-.0835.1016-.1087.1624-.0252.0607-.0382.1259-.0382.1916 0 .0658.013.1309.0382.1917.0252.0607.0621.1159.1087.1623l1.5 1.5c.0939.0939.2212.1466.354.1466s.2601-.0527.354-.1466.1466-.2212.1466-.354-.0527-.2601-.1466-.354l-1.5-1.5c-.0464-.0465-.1016-.0835-.1624-.1087-.0607-.0252-.1258-.0382-.1916-.0382s-.1309.013-.1916.0382c-.0608.0252-.1159.0622-.1624.1087z"/></g></svg>