<svg fill="none" height="24" viewBox="0 0 24 24" width="24" xmlns="http://www.w3.org/2000/svg"><path d="m21.8623 20.8116-5.0388-5.0388c-.0898-.0899-.207-.1367-.332-.1367h-.4023c1.3397-1.4492 2.16-3.3827 2.16-5.5115 0-4.48806-3.6365-8.1246-8.1246-8.1246-4.48806 0-8.1246 3.63654-8.1246 8.1246 0 4.4881 3.63654 8.1246 8.1246 8.1246 2.1288 0 4.0623-.8203 5.5115-2.1561v.3984c0 .125.0507.2422.1367.332l5.0388 5.0388c.1836.1836.4804.1836.664 0l.3867-.3867c.1836-.1836.1836-.4804 0-.664zm-11.7377-3.8123c-3.80059 0-6.87466-3.0741-6.87466-6.8747 0-3.80059 3.07407-6.87466 6.87466-6.87466 3.8006 0 6.8747 3.07407 6.8747 6.87466 0 3.8006-3.0741 6.8747-6.8747 6.8747z" fill="#000" stroke="#000" stroke-width=".1"/></svg>