<svg fill="none" height="24" viewBox="0 0 24 24" width="24" xmlns="http://www.w3.org/2000/svg"><path d="m21.1663 5.25h-14.67742l-.2892-1.56175c-.07392-.39905-.41805-.68825-.81906-.68825h-2.96395c-.23011 0-.41667.18889-.41667.42188v.28124c0 .23299.18656.42188.41667.42188h2.73333l2.42801 13.1114c-.35909.3996-.57802.9307-.57802 1.5136 0 1.2426.99493 2.25 2.22222 2.25s2.22219-1.0074 2.22219-2.25c.0005-.3951-.1024-.7832-.298-1.125h5.0405c-.1956.3418-.2984.7299-.298 1.125 0 1.2426.9949 2.25 2.2222 2.25s2.2222-1.0074 2.2222-2.25c0-.6326-.2581-1.2038-.6732-1.6125-.0899-.3601-.4115-.6375-.8085-.6375h-10.27939l-.41666-2.25h11.50625c.3947 0 .7353-.2804.8158-.6717l1.5046-7.31246c.1078-.52397-.2873-1.01584-.8159-1.01584zm-10.833 13.5c0 .6203-.49842 1.125-1.11109 1.125s-1.11111-.5047-1.11111-1.125.49844-1.125 1.11111-1.125 1.11109.5047 1.11109 1.125zm7.7778 1.125c-.6127 0-1.1111-.5047-1.1111-1.125s.4984-1.125 1.1111-1.125 1.1111.5047 1.1111 1.125-.4984 1.125-1.1111 1.125zm1.3248-6.75h-11.48869l-1.25-6.75h14.12759z" fill="#000"/></svg>