<svg fill="none" height="24" viewBox="0 0 24 24" width="24" xmlns="http://www.w3.org/2000/svg"><path d="m17.4021 20.9903h-3.7593c-.1381 0-1.0656-.0773-1.5589-.2418l-3.06861-1.0059c-.40454-.1354-1.09521-.5223-1.38135-.6867h-.87814c.04933.2031.0888.2902.12826.3772.28614.561-.18746 1.151-.6808 1.4799l-.12827.087h-1.06562c-1.12481 0-2.12136-.7157-2.44696-1.741-.37494-1.209-.56241-2.4471-.56241-3.6948 0-1.5862.296-3.1435.88801-4.604.37494-.9382 1.33202-1.57654 2.38777-1.57654h1.04588c.40454 0 .75974.20312.95708.55132.09866.16442.13813.35792.13813.54162.48347-.1837.91761-.57064 1.21362-1.09294.51307-.89951 1.22348-1.52821 2.06211-1.8087 1.0163-.33853 1.7761-.95755 2.0721-1.69264.1874-.46427.2861-.94788.2861-1.44116v-.25148c0-.31918.1283-.61902.3552-.84148.227-.22246.5427-.3482.8584-.3482.7104 0 1.3814.27082 1.8846.76411.5032.49328.7795 1.15099.7795 1.84739 0 1.16067-.2664 2.28264-.7795 3.31757-.0592.12574-.0197.23213.0197.29017.0691.09672.1776.16442.296.16442h2.9502c1.2827 0 2.4174 1.01554 2.5358 2.25364.0296.3482.0493.7061.0493 1.0639 0 2.6406-.9176 5.2424-2.5851 7.3219-.4933.619-1.2235.9672-1.9931.9672zm-10.89297-2.9016h1.39122l.1184.0677c.24667.1451.97681.561 1.30241.6674l3.06854 1.0059c.2862.0967.9374.1644 1.2827.1934h3.7198c.4736 0 .9176-.2225 1.2235-.5997 1.5293-1.9054 2.3779-4.2944 2.368-6.7222 0-.3288-.0197-.6577-.0493-.9769-.0691-.7447-.7795-1.3734-1.5491-1.3734h-5.3774v-.96724h1.1445c-.0789-.29016-.0493-.59967.0888-.88017.4539-.90919.6809-1.87641.6809-2.89199 0-.43525-.1777-.85116-.4934-1.16067s-.74-.48361-1.184-.48361c-.0592 0-.1184.01935-.1579.06771-.0394.04836-.069.09672-.069.16443v.25147c0 .61902-.1184 1.2187-.3552 1.79904-.4046 1.00591-1.3814 1.81837-2.6739 2.25362-.7598.25148-1.24326.88017-1.51953 1.36379-.57228 1.00592-1.52936 1.64432-2.54564 1.71202-.60187 1.1606-.91761 2.4374-.91761 3.7431 0 .9576.16774 1.8861.49334 2.7856zm-1.24322-7.7378c-.65121 0-1.23335.3869-1.47015.9575-.54268 1.3541-.81895 2.7856-.81895 4.2558 0 1.151.16774 2.2923.51308 3.395.19733.619.80907 1.0542 1.49975 1.0542h.74988c.10853-.0967.2072-.2031.22693-.2611-.10853-.1451-.2072-.3869-.296-1.0736-.43414-1.0833-.66108-2.2246-.65121-3.3853 0-1.6926.47361-3.3466 1.37148-4.7878.02961-.0483.01974-.087 0-.116-.01973-.0387-.04933-.0484-.09866-.0484h-1.04588z" fill="#010101"/></svg>