<svg fill="none" height="24" viewBox="0 0 24 24" width="24" xmlns="http://www.w3.org/2000/svg"><path d="m6.37 19.52-2.75-.6c-.25-.05-.45-.18-.6-.39s-.21-.44-.17-.69l.28-2.82-1.88-2.15c-.17-.18-.25-.4-.25-.65s.08-.47.25-.65l1.88-2.15001-.28-2.83c-.03-.25.03-.48.17-.69.15-.21.35-.34001.6-.39001l2.75-.59999 1.46-2.44c.13-.22.32-.36.55-.42.23-.07.47-.06.7.02l2.6 1.1 2.59-1.1c.23-.08.47-.09.7-.02s.42.21.55.42l1.45 2.45 2.75.59999c.25.05.45.18001.6.39001s.21.44.18.69l-.28 2.83 1.88 2.15001c.17.18.25.4.25.65s-.08.47-.25.65l-1.88 2.15.28 2.82c.03.25-.03.48-.18.69s-.35.34-.6.39l-2.75.6-1.45 2.45c-.13.22-.32.36-.55.42s-.47.06-.7-.02l-2.6-1.1-2.6 1.1c-.23.08-.47.09-.7.02s-.42-.21-.55-.42l-1.45-2.45zm3.55-4.45c.18.18.42.27.7.27s.52-.09.7-.27l4.25-4.25c.2-.2.3-.44.3-.71 0-.27002-.1-.51001-.3-.71001s-.44-.3-.71-.3-.51.1-.71.3l-3.53 3.53001-1.45-1.43c-.2-.18-.44-.27-.71-.26-.28 0-.5.1-.69.29-.18.18-.28.42-.28.7s.09.52.28.7l2.15 2.15zm-1.11 6.08 2.86-1.24 2.92 1.24 1.57-2.7 3.09-.73-.28-3.14 2.08-2.36-2.08-2.41001.28-3.14-3.09-.67001-1.63-2.69999-2.86 1.23999-2.92-1.23999-1.57 2.69999-3.09.67001.28 3.14-2.08 2.41001 2.08 2.36-.28 3.2 3.09.67z" fill="#000"/></svg>