<svg width="24" height="24" viewBox="0 0 24 24" fill="none" xmlns="http://www.w3.org/2000/svg">
<path d="M6.37 19.52L3.62 18.92C3.37 18.87 3.17 18.74 3.02 18.53C2.87 18.32 2.81 18.09 2.85 17.84L3.13 15.02L1.25 12.87C1.08 12.69 1 12.47 1 12.22C1 11.97 1.08 11.75 1.25 11.57L3.13 9.41999L2.85 6.58999C2.82 6.33999 2.88 6.10999 3.02 5.89999C3.17 5.68999 3.37 5.55998 3.62 5.50998L6.37 4.90999L7.83 2.46999C7.96 2.24999 8.15 2.10999 8.38 2.04999C8.61 1.97999 8.85 1.98999 9.08 2.06999L11.68 3.16999L14.27 2.06999C14.5 1.98999 14.74 1.97999 14.97 2.04999C15.2 2.11999 15.39 2.25999 15.52 2.46999L16.97 4.91999L19.72 5.51998C19.97 5.56998 20.17 5.69999 20.32 5.90999C20.47 6.11999 20.53 6.34999 20.5 6.59999L20.22 9.42999L22.1 11.58C22.27 11.76 22.35 11.98 22.35 12.23C22.35 12.48 22.27 12.7 22.1 12.88L20.22 15.03L20.5 17.85C20.53 18.1 20.47 18.33 20.32 18.54C20.17 18.75 19.97 18.88 19.72 18.93L16.97 19.53L15.52 21.98C15.39 22.2 15.2 22.34 14.97 22.4C14.74 22.46 14.5 22.46 14.27 22.38L11.67 21.28L9.07 22.38C8.84 22.46 8.6 22.47 8.37 22.4C8.14 22.33 7.95 22.19 7.82 21.98L6.37 19.53V19.52ZM9.92 15.07C10.1 15.25 10.34 15.34 10.62 15.34C10.9 15.34 11.14 15.25 11.32 15.07L15.57 10.82C15.77 10.62 15.87 10.38 15.87 10.11C15.87 9.83998 15.77 9.59999 15.57 9.39999C15.37 9.19999 15.13 9.09999 14.86 9.09999C14.59 9.09999 14.35 9.19999 14.15 9.39999L10.62 12.93L9.17 11.5C8.97 11.32 8.73 11.23 8.46 11.24C8.18 11.24 7.96 11.34 7.77 11.53C7.59 11.71 7.49 11.95 7.49 12.23C7.49 12.51 7.58 12.75 7.77 12.93L9.92 15.08V15.07ZM8.81 21.15L11.67 19.91L14.59 21.15L16.16 18.45L19.25 17.72L18.97 14.58L21.05 12.22L18.97 9.80999L19.25 6.66999L16.16 5.99998L14.53 3.29999L11.67 4.53998L8.75 3.29999L7.18 5.99998L4.09 6.66999L4.37 9.80999L2.29 12.22L4.37 14.58L4.09 17.78L7.18 18.45L8.81 21.15V21.15Z" fill="black"/>
</svg>
