<svg fill="none" height="24" viewBox="0 0 24 24" width="24" xmlns="http://www.w3.org/2000/svg"><path d="m10.421 20.421c0 .4188.1663.8204.4625 1.1165.2961.2961.6977.4625 1.1165.4625s.8204-.1664 1.1165-.4625.4625-.6977.4625-1.1165v-6.841h6.842c.4188 0 .8204-.1664 1.1165-.4625s.4625-.6977.4625-1.1165-.1664-.8204-.4625-1.1165c-.2961-.2962-.6977-.4625-1.1165-.4625h-6.841v-6.84202c0-.41878-.1664-.82041-.4625-1.11653-.2961-.29611-.6977-.46247-1.1165-.46247s-.8204.16636-1.1165.46247c-.2962.29612-.4625.69775-.4625 1.11653v6.84202h-6.84202c-.41878 0-.82041.1663-1.11653.4625-.29611.2961-.46247.6977-.46247 1.1165s.16636.8204.46247 1.1165c.29612.2961.69775.4625 1.11653.4625h6.84202v6.842z" fill="currentColor"/></svg>