<svg fill="none" height="24" viewBox="0 0 24 24" width="24" xmlns="http://www.w3.org/2000/svg"><path d="m23.4025 8.28351c-.2988-.30046-.6971-.40062-1.0954-.40062l-15.63489 1.50232v-3.10478c0-.60093-.29875-1.10169-.89625-1.20185-.49795-.20031-1.09545 0-1.3942.40062l-4.082997 5.6086c-.3983495.5008-.3983495 1.302 0 1.8028l4.082997 5.6086c.19915.3005.5975.5008.99585.5008.0996 0 .29875 0 .39835-.1002.4979-.2003.89625-.7011.89625-1.2018v-2.9045l15.83399 1.4022c.3984 0 .7967-.1002.9959-.3005.2987-.3005.4979-.6009.4979-1.0015v-5.50849c-.0996-.40062-.2988-.80124-.5975-1.1017zm-1.4938 5.90909-15.83399-1.4022c-.39835 0-.6971.1002-.99585.4006-.29875.3005-.49795.601-.49795 1.0016v1.302l-2.4896-3.5054 2.5892-3.50538v1.50231c0 .40057.19915.80117.39835 1.00147.29875.3005.5975.4007.99585.3005l15.83399-1.30197z" fill="#1b1d21"/></svg>