<svg fill="none" height="24" viewBox="0 0 24 24" width="24" xmlns="http://www.w3.org/2000/svg"><path d="m.59751 8.28351c.298755-.30046.69709-.40062 1.09543-.40062l15.63486 1.50232v-3.10478c0-.60093.2987-1.10169.8962-1.20185.498-.20031 1.0955 0 1.3942.40062l4.083 5.6086c.3984.5008.3984 1.302 0 1.8028l-4.083 5.6086c-.1991.3005-.5975.5008-.9958.5008-.0996 0-.2988 0-.3984-.1002-.4979-.2003-.8962-.7011-.8962-1.2018v-2.9045l-15.83403 1.4022c-.39834 0-.796675-.1002-.995845-.3005-.298756-.3005-.497925-.6009-.497925-1.0015v-5.50849c.0995844-.40062.298755-.80124.59751-1.1017zm1.49377 5.90909 15.83402-1.4022c.3983 0 .6971.1002.9958.4006.2988.3005.498.601.498 1.0016v1.302l2.4896-3.5054-2.5892-3.50538v1.50231c0 .40057-.1992.80117-.3984 1.00147-.2987.3005-.5975.4007-.9958.3005l-15.83402-1.30197z" fill="#1b1d21"/></svg>