<svg fill="none" height="24" viewBox="0 0 24 24" width="24" xmlns="http://www.w3.org/2000/svg"><path d="m15.7165.59751c.3005.298755.4006.69709.4006 1.09543l-1.5023 15.63486h3.1048c.6009 0 1.1017.2987 1.2018.8962.2003.498 0 1.0955-.4006 1.3942l-5.6086 4.083c-.5008.3984-1.302.3984-1.8028 0l-5.60864-4.083c-.30045-.1991-.50075-.5975-.50075-.9958 0-.0996 0-.2988.10015-.3984.2003-.4979.7011-.8962 1.20185-.8962h2.90445l-1.40215-15.83403c0-.39834.10015-.796675.3005-.995845.30045-.298756.6009-.49792455 1.0015-.49792457l5.50849-.00000024c.4006.09958441.8012.29875481 1.1017.59750981zm-5.90909 1.49377 1.40219 15.83402c0 .3983-.1002.6971-.4006.9958-.3005.2988-.601.498-1.00159.498h-1.302l3.50539 2.4896 3.5054-2.5892h-1.5023c-.4006 0-.8012-.1992-1.0015-.3984-.3005-.2987-.4007-.5975-.3005-.9958l1.302-15.83402z" fill="#1b1d21"/></svg>