<svg fill="none" height="24" viewBox="0 0 24 24" width="24" xmlns="http://www.w3.org/2000/svg"><path d="m15.7165 23.4025c.3005-.2988.4006-.6971.4006-1.0954l-1.5023-15.63489h3.1048c.6009 0 1.1017-.29875 1.2018-.89625.2003-.49795 0-1.09545-.4006-1.3942l-5.6086-4.082997c-.5008-.3983498-1.302-.3983498-1.8028 0l-5.60864 4.082997c-.30045.19915-.50075.5975-.50075.99585 0 .0996 0 .29875.10015.39835.2003.4979.7011.89625 1.20185.89625h2.90445l-1.40215 15.83399c0 .3984.10015.7967.3005.9959.30045.2987.6009.4979 1.0015.4979h5.50849c.4006-.0996.8012-.2988 1.1017-.5975zm-5.90909-1.4938 1.40219-15.83399c0-.39835-.1002-.6971-.4006-.99585-.3005-.29875-.601-.49795-1.00159-.49795h-1.302l3.50539-2.4896 3.5054 2.5892h-1.5023c-.4006 0-.8012.19915-1.0015.39835-.3005.29875-.4007.5975-.3005.99585l1.302 15.83399z" fill="#1b1d21"/></svg>