<svg fill="none" height="32" viewBox="0 0 32 32" width="32" xmlns="http://www.w3.org/2000/svg" xmlns:xlink="http://www.w3.org/1999/xlink"><clipPath id="a"><path d="m0 0h32v32h-32z"/></clipPath><g clip-path="url(#a)"><circle cx="16" cy="16" fill="#d20019" r="16"/><path d="m11.3578 9.67975c-.0002.44525-.1773.87225-.4923 1.18695s-.7422.4913-1.18743.4911c-.44527-.0002-.87222-.1773-1.18692-.4923s-.49137-.7422-.49115-1.18743c.00022-.44527.17732-.87222.49233-1.18692.31502-.3147.74214-.49137 1.18742-.49115.44525.00022.87225.17732 1.18695.49233.3147.31502.4913.74214.4911 1.18742zm.0504 2.92125h-3.35783v10.51h3.35783zm5.3053 0h-3.341v10.51h3.3075v-5.5152c0-3.0724 4.0042-3.3578 4.0042 0v5.5152h3.3158v-6.6569c0-5.1794-5.9265-4.9863-7.32-2.4428z" fill="#fff"/></g></svg>