<svg fill="none" height="32" viewBox="0 0 32 32" width="32" xmlns="http://www.w3.org/2000/svg" xmlns:xlink="http://www.w3.org/1999/xlink"><clipPath id="a"><path d="m0 0h32v32h-32z"/></clipPath><g clip-path="url(#a)"><circle cx="16" cy="16" fill="#d20019" r="16"/><path d="m20.6 10.1179c-.6835-.78043-1.0603-1.78262-1.06-2.82005h-3.09v12.40005c-.0238.671-.3071 1.3066-.7902 1.7729s-1.1283.727-1.7998.7271c-1.42 0-2.6-1.16-2.6-2.6 0-1.72 1.66-3.01 3.37-2.48v-3.16c-3.45-.46-6.46997 2.22-6.46997 5.64 0 3.33 2.75997 5.7 5.68997 5.7 3.14 0 5.69-2.55 5.69-5.7v-6.29c1.253.8998 2.7574 1.3826 4.3 1.38v-3.09s-1.88.09-3.24-1.48z" fill="#fff"/></g></svg>