<svg fill="none" height="24" viewBox="0 0 24 24" width="24" xmlns="http://www.w3.org/2000/svg"><path d="m13.878 11.998 5.728-5.71501c.2395-.25317.3708-.58977.3659-.93821-.0049-.34845-.1456-.68124-.392-.92758-.2465-.24635-.5794-.38682-.9278-.39152-.3485-.00471-.685.12671-.9381.36631l-5.714 5.72801-5.71396-5.72801c-.25076-.25089-.59092-.3919-.94564-.39199-.35473-.00009-.69496.14073-.94586.39149-.25089.25076-.3919.59092-.39199.94565-.00009.35472.14073.69496.39149.94585l5.72796 5.71501-5.72796 5.714c-.12493.1238-.22409.2712-.29177.4336-.06767.1623-.10251.3365-.10251.5124s.03484.3501.10251.5124c.06768.1624.16684.3098.29177.4336.1237.1252.27101.2245.4334.2924.16239.0678.33662.1027.5126.1027s.35022-.0349.5126-.1027c.16239-.0679.3097-.1672.4334-.2924l5.71396-5.728 5.715 5.728c.1237.125.271.2243.4333.292s.3364.1026.5122.1026c.1759 0 .35-.0349.5123-.1026s.3096-.167.4332-.292c.1249-.1239.2239-.2713.2915-.4336.0676-.1624.1024-.3365.1024-.5124s-.0348-.35-.1024-.5124c-.0676-.1623-.1666-.3097-.2915-.4336z" fill="#000"/></svg>