<svg fill="none" height="24" viewBox="0 0 24 24" width="24" xmlns="http://www.w3.org/2000/svg"><path d="m8.65906 22.0002c.21339.0005.42419-.0467.61695-.1383.19276-.0915.36259-.225.49705-.3907l6.90004-8.57c.2101-.2556.325-.5762.325-.907 0-.3309-.1149-.6515-.325-.907l-7.14304-8.57102c-.24241-.29174-.59078-.47523-.96848-.51012-.3777-.03488-.75379.08171-1.04552.32412-.29174.24241-.47524.59078-.51012.96848-.03488.37769.08171.75378.32412 1.04552l6.38604 7.65702-6.17104 7.656c-.17497.2096-.28618.4649-.32046.7358s.00981.5459.12705.7925c.11724.2465.3027.4543.53442.5987s.49998.2194.77299.216z" fill="currentColor"/></svg>