<svg fill="none" height="24" viewBox="0 0 24 24" width="24" xmlns="http://www.w3.org/2000/svg"><path d="m21.7155 18.2975-7.6386-14.06948c-.2022-.37157-.5009-.68173-.8646-.89785-.3636-.21611-.7789-.33017-1.2019-.33017s-.8383.11406-1.2019.33017c-.3637.21612-.6624.52628-.8646.89785l-7.64646 14.06948c-.20013.3592-.30262.7646-.29724 1.1758s.11844.8138.32791 1.1677.50803.6467.86592.8492c.3579.2025.76262.3077 1.17384.3051h15.27723c.4078.0003.8088-.1053 1.1635-.3066s.6509-.4914.8597-.8418c.2088-.3503.3229-.7489.3312-1.1567.0083-.4077-.0896-.8106-.284-1.1692zm-10.8776-10.03842c0-.312.124-.61121.3446-.83183.2206-.22061.5198-.34455.8318-.34455s.6112.12394.8318.34455c.2207.22062.3446.51983.3446.83183v5.40352c0 .312-.1239.6112-.3446.8318-.2206.2206-.5198.3445-.8318.3445s-.6112-.1239-.8318-.3445-.3446-.5198-.3446-.8318zm1.2078 10.59522c-.2668 0-.5276-.0791-.7494-.2273-.2219-.1482-.3947-.3589-.4968-.6054s-.1289-.5177-.0768-.7794c.052-.2616.1805-.502.3692-.6906.1886-.1887.429-.3171.6906-.3692.2617-.052.5329-.0253.7794.0768s.4572.275.6054.4968.2273.4826.2273.7494c0 .3578-.1421.7009-.3951.9538-.253.253-.5961.3951-.9538.3951z" fill="currentColor"/></svg>