<svg fill="none" height="24" viewBox="0 0 24 24" width="24" xmlns="http://www.w3.org/2000/svg" xmlns:xlink="http://www.w3.org/1999/xlink"><clipPath id="a"><path d="m0 0h24v24h-24z"/></clipPath><g clip-path="url(#a)"><path d="m23.6589 18.3572-9.167-16.88299c-.2428-.44579-.6012-.817892-1.0377-1.077149-.4364-.259257-.9346-.39608444-1.4423-.39608444-.5076 0-1.0058.13682744-1.4422.39608444-.4365.259257-.79495.631359-1.03775 1.077149l-9.174002 16.88299c-.240162.431-.3631599.9175-.3567318 1.4108.00642809.4934.1420568.9765.3933678 1.4011s.609526.776 1.038936 1.019.91502.3693 1.40843.3661h18.33295c.4895.0006.9708-.126 1.3965-.3676.4257-.2415.7814-.5895 1.032-1.01.2506-.4204.3876-.8988.3975-1.3882s-.1076-.9729-.341-1.4032zm-13.053-12.04599c.0098-.36785.1628-.71735.4265-.97406.2636-.25672.6171-.40037.985-.40037.368 0 .7215.14365.9851.40037.2636.25671.4167.60621.4264.97406v6.48399c0 .3745-.1487.7336-.4135.9984s-.624.4136-.9985.4136c-.3744 0-.7336-.1488-.9984-.4136s-.4136-.6239-.4136-.9984v-6.48399zm1.449 12.71399c-.2173.0077-.4341-.0286-.6372-.1065s-.3884-.1959-.5449-.347-.2809-.3322-.3659-.5324c-.0851-.2003-.1289-.4156-.1289-.6331s.0438-.4328.1289-.6331c.085-.2002.2094-.3813.3659-.5324.1565-.151.3418-.2691.5449-.347s.4199-.1141.6372-.1065c.4196.0148.817.1918 1.1086.4938s.4545.7054.4545 1.1252-.1629.8232-.4545 1.1252-.689.4791-1.1086.4938z" fill="#fff"/></g></svg>