<svg width="24" height="24" viewBox="0 0 24 24" fill="none" xmlns="http://www.w3.org/2000/svg">
<g clip-path="url(#clip0_2215_23092)">
<path d="M23.6589 18.3572L14.4919 1.47421C14.2491 1.02842 13.8907 0.656318 13.4542 0.397061C13.0178 0.137804 12.5196 0.000976562 12.0119 0.000976562C11.5043 0.000976563 11.0061 0.137804 10.5697 0.397061C10.1332 0.656318 9.77475 1.02842 9.53195 1.47421L0.357948 18.3572C0.117786 18.7882 -0.0052119 19.2747 0.0012162 19.768C0.00764429 20.2614 0.143273 20.7445 0.394584 21.1691C0.645895 21.5937 1.00411 21.9451 1.43352 22.1881C1.86293 22.4311 2.34854 22.5574 2.84195 22.5542H21.1749C21.6644 22.5548 22.1457 22.4282 22.5714 22.1866C22.9971 21.9451 23.3528 21.5971 23.6034 21.1766C23.854 20.7562 23.991 20.2778 24.0009 19.7884C24.0108 19.299 23.8933 18.8155 23.6599 18.3852L23.6589 18.3572ZM10.6059 6.31121C10.6157 5.94336 10.7687 5.59386 11.0324 5.33715C11.296 5.08043 11.6495 4.93678 12.0174 4.93678C12.3854 4.93678 12.7389 5.08043 13.0025 5.33715C13.2661 5.59386 13.4192 5.94336 13.4289 6.31121V12.7952C13.4289 13.1697 13.2802 13.5288 13.0154 13.7936C12.7506 14.0584 12.3914 14.2072 12.0169 14.2072C11.6425 14.2072 11.2833 14.0584 11.0185 13.7936C10.7537 13.5288 10.6049 13.1697 10.6049 12.7952V6.31121H10.6059ZM12.0549 19.0252C11.8376 19.0329 11.6208 18.9966 11.4177 18.9187C11.2146 18.8408 11.0293 18.7228 10.8728 18.5717C10.7163 18.4206 10.5919 18.2395 10.5069 18.0393C10.4218 17.839 10.378 17.6237 10.378 17.4062C10.378 17.1887 10.4218 16.9734 10.5069 16.7731C10.5919 16.5729 10.7163 16.3918 10.8728 16.2407C11.0293 16.0897 11.2146 15.9716 11.4177 15.8937C11.6208 15.8158 11.8376 15.7796 12.0549 15.7872C12.4745 15.802 12.8719 15.979 13.1635 16.281C13.4551 16.583 13.618 16.9864 13.618 17.4062C13.618 17.826 13.4551 18.2294 13.1635 18.5314C12.8719 18.8334 12.4745 19.0105 12.0549 19.0252Z" fill="white"/>
</g>
<defs>
<clipPath id="clip0_2215_23092">
<rect width="24" height="24" fill="white"/>
</clipPath>
</defs>
</svg>
