<svg fill="none" height="24" viewBox="0 0 24 24" width="24" xmlns="http://www.w3.org/2000/svg"><g fill="currentColor"><path d="m15.4875 18.14-2.0175-2.0188c-.7802.279-1.6236.3307-2.432.149-.8084-.1816-1.54859-.5891-2.13448-1.175-.58588-.5859-.99334-1.3261-1.17498-2.1345s-.12998-1.6518.14896-2.432l-2.575-2.57495c-2.13 1.89375-3.3025 4.04625-3.3025 4.04625s3.75 6.875 10 6.875c1.2005-.0042 2.3874-.2543 3.4875-.735zm-6.975-12.28c1.10007-.48072 2.287-.73087 3.4875-.735 6.25 0 10 6.875 10 6.875s-1.1737 2.1512-3.3012 4.0475l-2.5776-2.5775c.279-.7802.3307-1.6236.149-2.432-.1816-.8084-.5891-1.54859-1.175-2.13448-.5859-.58588-1.3261-.99334-2.1345-1.17498s-1.6518-.12998-2.432.14896z"/><path d="m8.90625 11.5576c-.06876.4804-.0247.9702.1287 1.4306s.41191.8788.75506 1.2219c.34319.3432.76149.6017 1.22189.7551s.9502.1974 1.4306.1287zm6.18745.885-3.5362-3.53748c.4804-.06876.9702-.0247 1.4306.1287s.8787.41191 1.2219.75506c.3431.34312.6016.76152.755 1.22192s.1975.9502.1287 1.4306zm3.9638 7.5-15-14.99998.885-.885 15 14.99998z"/></g></svg>