<svg fill="none" height="24" viewBox="0 0 24 24" width="24" xmlns="http://www.w3.org/2000/svg"><path d="m4.42406 19.758c-.53309 0-.98909-.1898-1.36946-.5695-.18345-.1774-.32867-.3905-.42673-.6261-.09805-.2357-.14687-.4889-.14345-.7441v-11.63632c0-.53309.19055-.98909.57018-1.36946.17738-.18333.39035-.32847.62584-.42652.2355-.09805.48855-.14694.74362-.14366h5.81814l1.9397 1.93964h7.7571c.5338 0 .9905.18982 1.3701.57018.3804.38036.5702.83636.5695 1.36945v9.69669c0 .5331-.1891.9899-.5687 1.3702-.1772.1837-.3903.3291-.626.427-.2357.098-.489.1465-.7442.1425h-15.51637z" fill="#000"/></svg>