<svg fill="none" height="24" viewBox="0 0 24 24" width="24" xmlns="http://www.w3.org/2000/svg"><path d="m22 12c0-2.65241-1.0536-5.1962-2.9292-7.07175-1.8755-1.87555-4.4193-2.92923-7.0718-2.92923-2.65238 0-5.19618 1.05368-7.07173 2.92923s-2.92922 4.41934-2.92922 7.07175c0 2.6525 1.05367 5.1962 2.92922 7.0718 1.87555 1.8755 4.41935 2.9292 7.07173 2.9292 2.6525 0 5.1963-1.0537 7.0718-2.9292 1.8756-1.8756 2.9292-4.4193 2.9292-7.0718zm-2.07-1h-2.93c-.1649-2.35183-.9707-4.61363-2.33-6.53998 1.3965.49597 2.6278 1.37007 3.5565 2.52485.9288 1.15477 1.5186 2.54482 1.7035 4.01513zm-10.84995 2h5.91995c-.2559 2.4706-1.3089 4.7908-3 6.61-1.6899-1.8116-2.71876-4.1407-2.91995-6.61zm0-2c.23288-2.45815 1.25755-4.77426 2.91995-6.59998 1.7048 1.80613 2.7602 4.12804 3 6.59998zm.36-6.56998c-1.36645 1.93703-2.1852 4.20672-2.37 6.56998h-3c.1889-1.48848.7926-2.89385 1.74216-4.0556s2.20669-2.03305 3.62784-2.51438zm-5.37 8.56998h3c.16469 2.3613.97788 4.6313 2.35 6.56-1.41603-.4837-2.66802-1.3548-3.61374-2.5144-.94571-1.1596-1.54725-2.5612-1.73626-4.0456zm10.54995 6.55c1.3685-1.9293 2.1907-4.1922 2.38-6.55h2.95c-.1891 1.4803-.7884 2.8781-1.7303 4.0356s-2.1887 2.0284-3.5997 2.5144z" fill="currentColor"/></svg>