<svg fill="none" height="24" viewBox="0 0 24 24" width="24" xmlns="http://www.w3.org/2000/svg" xmlns:xlink="http://www.w3.org/1999/xlink"><clipPath id="a"><path d="m0 0h24v24h-24z"/></clipPath><g clip-path="url(#a)"><path d="m11.999 0c6.628 0 12.001 5.373 12.001 12.001 0 6.627-5.373 11.999-12.001 11.999-6.629.001-11.99899986-5.372-11.99899986-11.999-.001-6.628 5.36999986-12.001 11.99899986-12.001zm-.005 9.899c-.294.0005-.5776.1089-.797.3047-.2193.1958-.3592.4652-.393.7573l-.009.14.005 6.6.007.14c.0339.2923.1741.562.3939.7578.2198.1957.5038.3039.7981.3039s.5783-.1082.7981-.3039c.2198-.1958.36-.4655.3939-.7578l.008-.14-.005-6.602-.009-.14c-.0345-.2919-.175-.5609-.3947-.7561s-.5034-.30298-.7973-.3029zm.006-4.498c-.2035-.01038-.407.02077-.5981.09153s-.3658.17967-.5134.32009c-.1477.14042-.2652.30942-.3455.49671s-.1216.38895-.1215.59272c.0002.20377.0418.40538.1223.59257.0805.18718.1983.35602.3461.49624.1479.14023.3227.2489.5139.31941s.3947.10138.5982.09073c.3844-.02024.7464-.1873 1.0112-.46669s.4122-.64979.4118-1.03473c-.0004-.38495-.1485-.75505-.4139-1.03391-.2653-.27887-.6276-.4452-1.0121-.46467z" fill="#fff"/></g></svg>