<svg fill="none" height="24" viewBox="0 0 24 24" width="24" xmlns="http://www.w3.org/2000/svg"><path d="m12 2c-5.52246 0-10 4.47915-10 10 0 5.5241 4.47754 10 10 10 5.5225 0 10-4.4759 10-10 0-5.52085-4.4775-10-10-10zm0 18.0645c-4.45694 0-8.06452-3.6061-8.06452-8.0645 0-4.45544 3.60775-8.06452 8.06452-8.06452 4.4553 0 8.0645 3.60771 8.0645 8.06452 0 4.4569-3.6061 8.0645-8.0645 8.0645zm0-13.62902c.9353 0 1.6935.75823 1.6935 1.69355s-.7582 1.69355-1.6935 1.69355-1.6935-.75823-1.6935-1.69355.7582-1.69355 1.6935-1.69355zm2.2581 10.24192c0 .2672-.2167.4839-.4839.4839h-3.5484c-.26721 0-.48386-.2167-.48386-.4839v-.9677c0-.2672.21665-.4839.48386-.4839h.4839v-2.5806h-.4839c-.26721 0-.48386-.2167-.48386-.4839v-.9678c0-.2672.21665-.4838.48386-.4838h2.5807c.2672 0 .4838.2166.4838.4838v4.0323h.4839c.2672 0 .4839.2167.4839.4839z" fill="currentColor"/></svg>