<svg fill="none" height="24" viewBox="0 0 24 24" width="24" xmlns="http://www.w3.org/2000/svg"><path d="m21.8861 7.70139-5.5875-5.58744c-.1825-.1825-.4225-.14125-.5337.09125l-.7488 1.55998 5.2187 5.2187 1.56-.74874c.2325-.11125.2738-.3525.0913-.53375zm-7.8675-3.05747-5.14367.42875c-.34125.0425-.62624.115-.72499.56124v.00125c-1.39499 6.69994-6.14994 13.23864-6.14994 13.23864l1.11999 1.12 5.31245-5.3125c-.19064-.3991-.23405-.8528-.12255-1.2808s.37073-.8028.73187-1.0582c.36113-.2554.80092-.3749 1.24164-.3373.4407.0375.854.2296 1.1667.5424.3128.3127.5049.726.5424 1.1667.0376.4407-.0819.8805-.3373 1.2416-.2554.3612-.6302.6204-1.0582.7319s-.88171.0681-1.28082-.1225l-5.31245 5.3124 1.11999 1.12s6.53868-4.755 13.23858-6.1499h.0013c.4462-.0975.5187-.3825.5612-.725l.4288-5.14373-5.3362-5.3362z" fill="currentColor"/></svg>