<svg fill="none" height="24" viewBox="0 0 24 24" width="24" xmlns="http://www.w3.org/2000/svg"><path d="m10.3 6.86667c.5802 0 1.1473-.17204 1.6297-.49436s.8583-.78044 1.0803-1.31643c.2221-.536.2802-1.1258.167-1.69481s-.3926-1.09168-.8028-1.50192c-.4103-.41023-.9329-.6896-1.5019-.80279-.569-.113179-1.15884-.05509-1.69484.16693-.536.22201-.99412.59798-1.31644 1.08037-.32231.48239-.49435 1.04952-.49435 1.62967.00087.7777.3102 1.52331.86012 2.07322.54992.54992 1.29551.85924 2.07321.86012zm0-4.4c.2901 0 .5736.08602.8148.24717.2412.16117.4292.39023.5402.65822.111.26801.1401.5629.0835.84741-.0566.2845-.1963.54584-.4014.75096-.2051.20511-.4665.3448-.751.40139s-.5794.02755-.84737-.08346c-.268-.11101-.49706-.299-.65822-.54019s-.24718-.52476-.24718-.81484c.00044-.38885.1551-.76164.43006-1.0366s.64776-.42962 1.03661-.43006zm5.9564 9.32113c-.6884-.7746-1.607-1.2677-2.8696-1.5357l-1.1365-2.6521h-4.05299l-1.19731 8.3812v2.6188h2.56667v4.4h4.40003v-4.4h3.6666v-2.2c0-2.0612-.4503-3.5699-1.3769-4.6122zm-.0897 5.3455h-3.6667v4.4h-1.4667v-4.4h-2.56663v-1.0478l1.00269-7.01883h1.81374l1.0675 2.49073.3955.066c1.1229.1871 1.8898.549 2.4141 1.1388.6773.7619 1.0065 1.9518 1.0065 3.6378z" fill="#000"/></svg>