<svg fill="none" height="24" viewBox="0 0 24 24" width="24" xmlns="http://www.w3.org/2000/svg"><path clip-rule="evenodd" d="m4.46663 12c0-3.78003 2.94667-7.53337 7.53337-7.53337 3.704 0 5.536 2.74134 6.316 4.2h-2.316c-.1768 0-.3464.07024-.4714.19527-.1251.12502-.1953.29459-.1953.4714s.0702.34638.1953.4714c.125.12503.2946.19527.4714.19527h4c.1768 0 .3463-.07024.4714-.19527.125-.12502.1952-.29459.1952-.4714v-4c0-.17681-.0702-.34638-.1952-.4714-.1251-.12503-.2946-.19527-.4714-.19527s-.3464.07024-.4714.19527c-.1251.12502-.1953.29459-.1953.4714v2.41733c-.9387-1.656-3.112-4.61733-7.3333-4.61733-5.41737 0-8.8667 4.44667-8.8667 8.8667 0 4.42 3.44933 8.8666 8.8667 8.8666 2.592 0 4.7493-1.0266 6.2853-2.5893.8143-.8319 1.4607-1.8129 1.904-2.8893.0333-.081.0503-.1678.05-.2553-.0002-.0876-.0177-.1742-.0515-.255-.0337-.0808-.083-.1541-.1451-.2158-.0621-.0618-.1358-.1107-.2167-.1439-.081-.0333-.1678-.0503-.2553-.05-.0876.0002-.1742.0177-.255.0515-.0808.0337-.1541.083-.2158.1451-.0618.0621-.1107.1357-.1439.2167-.3777.9168-.9281 1.7524-1.6214 2.4613-1.2946 1.32-3.1146 2.1907-5.3346 2.1907-4.5867 0-7.53337-3.7533-7.53337-7.5333z" fill="#000" fill-rule="evenodd" stroke="#000" stroke-width=".5"/></svg>