<svg fill="none" height="24" viewBox="0 0 24 24" width="24" xmlns="http://www.w3.org/2000/svg"><path d="m20.944 10.833h-17.888c-.583 0-1.056.497-1.056 1.109v.116c0 .613.473 1.109 1.056 1.109h17.888c.583 0 1.056-.496 1.056-1.109v-.116c0-.612-.473-1.109-1.056-1.109zm0 5.834h-17.888c-.583 0-1.056.496-1.056 1.108v.117c0 .612.473 1.108 1.056 1.108h17.888c.583 0 1.056-.496 1.056-1.108v-.117c0-.612-.473-1.108-1.056-1.108zm0-11.667h-17.888c-.583 0-1.056.496-1.056 1.108v.117c0 .612.473 1.108 1.056 1.108h17.888c.583 0 1.056-.496 1.056-1.108v-.117c0-.612-.473-1.108-1.056-1.108z" fill="#000"/></svg>