<svg width="24" height="24" viewBox="0 0 24 24" fill="none" xmlns="http://www.w3.org/2000/svg">
<path d="M20.944 10.833H3.056C2.473 10.833 2 11.33 2 11.942V12.058C2 12.671 2.473 13.167 3.056 13.167H20.944C21.527 13.167 22 12.671 22 12.058V11.942C22 11.33 21.527 10.833 20.944 10.833ZM20.944 16.667H3.056C2.473 16.667 2 17.163 2 17.775V17.892C2 18.504 2.473 19 3.056 19H20.944C21.527 19 22 18.504 22 17.892V17.775C22 17.163 21.527 16.667 20.944 16.667ZM20.944 5H3.056C2.473 5 2 5.496 2 6.108V6.225C2 6.837 2.473 7.333 3.056 7.333H20.944C21.527 7.333 22 6.837 22 6.225V6.108C22 5.496 21.527 5 20.944 5Z" fill="black"/>
</svg>
