<svg   viewBox="0 0 32 32" fill="none" xmlns="http://www.w3.org/2000/svg">
<path fill-rule="evenodd" clip-rule="evenodd" d="M16 1.88235C8.20304 1.88235 1.88235 8.20304 1.88235 16C1.88235 23.797 8.20304 30.1176 16 30.1176C23.797 30.1176 30.1176 23.797 30.1176 16C30.1176 8.20304 23.797 1.88235 16 1.88235ZM0 16C0 7.16344 7.16344 0 16 0C24.8366 0 32 7.16344 32 16C32 24.8366 24.8366 32 16 32C7.16344 32 0 24.8366 0 16Z" fill="currentColor"/>
<path fill-rule="evenodd" clip-rule="evenodd" d="M17.3826 24.7618H13.6665V15.9988H11.8095V12.9794H13.6665V11.1666C13.6665 8.70352 14.7144 7.23804 17.6937 7.23804H20.1734V10.2586H18.6236C17.4638 10.2586 17.3872 10.6805 17.3872 11.468L17.3821 12.9794H20.1905L19.8618 15.9988H17.3821V24.7618H17.3826Z" fill="currentColor"/>
</svg>
