<svg width="32" height="32" viewBox="0 0 32 32" fill="none" xmlns="http://www.w3.org/2000/svg">
<g clip-path="url(#clip0_2137_28453)">
<path fill-rule="evenodd" clip-rule="evenodd" d="M16 1.88235C8.20304 1.88235 1.88235 8.20304 1.88235 16C1.88235 23.797 8.20304 30.1176 16 30.1176C23.797 30.1176 30.1176 23.797 30.1176 16C30.1176 8.20304 23.797 1.88235 16 1.88235ZM0 16C0 7.16344 7.16344 0 16 0C24.8366 0 32 7.16344 32 16C32 24.8366 24.8366 32 16 32C7.16344 32 0 24.8366 0 16Z" fill="black"/>
<path fill-rule="evenodd" clip-rule="evenodd" d="M22.2009 11.2515C22.8481 10.8431 23.3447 10.1954 23.5778 9.42392C22.9718 9.80306 22.3022 10.0772 21.5877 10.2257C21.0176 9.58276 20.2027 9.18188 19.3009 9.18188C17.5707 9.18188 16.1687 10.6615 16.1687 12.4863C16.1687 12.7453 16.1947 12.9978 16.2485 13.2389C13.6452 13.1008 11.3368 11.7866 9.79048 9.78604C9.52065 10.2758 9.36646 10.8431 9.36646 11.4482C9.36646 12.5941 9.91957 13.6057 10.7604 14.1995C10.2468 14.1825 9.76358 14.0321 9.34046 13.7863V13.827C9.34046 15.4286 10.4198 16.7645 11.855 17.0671C11.5914 17.1446 11.3153 17.1834 11.0285 17.1834C10.8268 17.1834 10.6296 17.1635 10.4395 17.1247C10.8375 18.437 11.9948 19.3939 13.3664 19.4194C12.2934 20.3062 10.9424 20.8338 9.47493 20.8338C9.22213 20.8338 8.97202 20.8196 8.72729 20.7884C10.1141 21.7254 11.7609 22.2728 13.5304 22.2728C19.2946 22.2728 22.4447 17.2372 22.4447 12.8701C22.4447 12.7264 22.4429 12.5837 22.4366 12.4428C23.0489 11.9767 23.5814 11.3943 24 10.7315C23.438 10.9943 22.8337 11.1721 22.2009 11.2515Z" fill="black"/>
</g>
<defs>
<clipPath id="clip0_2137_28453">
<rect width="32" height="32" fill="white"/>
</clipPath>
</defs>
</svg>
