<svg fill="none" height="32" viewBox="0 0 32 32" width="32" xmlns="http://www.w3.org/2000/svg" xmlns:xlink="http://www.w3.org/1999/xlink"><clipPath id="a"><path d="m0 0h32v32h-32z"/></clipPath><g clip-path="url(#a)"><circle cx="16" cy="16" fill="#d9222a" r="16"/><path d="m16.5 6.29785c-4.275 0-8.5 2.74089-8.5 7.17685 0 2.821 1.65 4.4239 2.65 4.4239.4125 0 .65-1.106.65-1.4186 0-.3726-.9875-1.1661-.9875-2.7168 0-3.2218 2.55-5.50585 5.85-5.50585 2.8375 0 4.9375 1.55077 4.9375 4.39985 0 2.1278-.8875 6.1189-3.7625 6.1189-1.0375 0-1.925-.7213-1.925-1.7551 0-1.5147 1.1-2.9813 1.1-4.5441 0-2.65276-3.9125-2.1719-3.9125 1.0338 0 .6732.0875 1.4186.4 2.0316-.575 2.3803-1.75 5.9266-1.75 8.379 0 .7574.1125 1.5027.1875 2.26.1417.1523.0708.1363.2875.0601 2.1-2.7649 2.025-3.3059 2.975-6.9243.5125.9377 1.8375 1.4426 2.8875 1.4426 4.425 0 6.4125-4.1474 6.4125-7.8861 0-3.97911-3.575-6.57575-7.5-6.57575z" fill="#fff"/></g></svg>