<svg   viewBox="0 0 32 32" fill="none" xmlns="http://www.w3.org/2000/svg">
<g clip-path="url(#clip0_2137_28449)">
<path fill-rule="evenodd" clip-rule="evenodd" d="M16 1.88235C8.20304 1.88235 1.88235 8.20304 1.88235 16C1.88235 23.797 8.20304 30.1176 16 30.1176C23.797 30.1176 30.1176 23.797 30.1176 16C30.1176 8.20304 23.797 1.88235 16 1.88235ZM0 16C0 7.16344 7.16344 0 16 0C24.8366 0 32 7.16344 32 16C32 24.8366 24.8366 32 16 32C7.16344 32 0 24.8366 0 16Z" fill="currentColor"/>
<path fill-rule="evenodd" clip-rule="evenodd" d="M23.2727 18.5922V13.408C23.2727 13.408 23.2727 10.9092 20.7661 10.9092H11.2331C11.2331 10.9092 8.72729 10.9092 8.72729 13.408V18.5922C8.72729 18.5922 8.72729 21.091 11.2331 21.091H20.7661C20.7661 21.091 23.2727 21.091 23.2727 18.5922ZM18.8239 16.0073L14.0621 18.7951V13.2187L18.8239 16.0073Z" fill="currentColor"/>
</g>
<defs>
<clipPath id="clip0_2137_28449">
<rect   fill="white"/>
</clipPath>
</defs>
</svg>
