<svg fill="none" height="32" viewBox="0 0 32 32" width="32" xmlns="http://www.w3.org/2000/svg" xmlns:xlink="http://www.w3.org/1999/xlink"><clipPath id="a"><path d="m0 0h32v32h-32z"/></clipPath><g clip-path="url(#a)"><circle cx="16" cy="16" fill="#d9222a" r="16"/><path d="m25.5821 11.4884c-.23-.8623-.9077-1.54133-1.7682-1.77179-1.5597-.41876-7.8139-.41876-7.8139-.41876s-6.25414 0-7.81387.41876c-.86048.23049-1.53819.90949-1.76821 1.77179-.41792 1.5628-.41792 4.8236-.41792 4.8236s0 3.2608.41792 4.8236c.23002.8623.90773 1.513 1.76821 1.7435 1.55973.4188 7.81387.4188 7.81387.4188s6.2541 0 7.8139-.4188c.8605-.2305 1.5382-.8812 1.7682-1.7435.4179-1.5628.4179-4.8236.4179-4.8236s0-3.2608-.4179-4.8236zm-11.6276 7.7841v-5.921l5.2273 2.9606z" fill="#fff"/></g></svg>