<svg fill="none" height="24" viewBox="0 0 24 24" width="24" xmlns="http://www.w3.org/2000/svg"><path d="m9.30797 20c-.171 0-.34-.039-.497-.112-.158-.0743-.29869-.1809-.413-.313l-6.06-6.868c-.22882-.2636-.34924-.6041-.337-.953.00859-.3476.14909-.679.393-.927.241-.242.563-.37.894-.36.33.012.644.162.87.42l5.137 5.832 10.48603-12.22196c.106-.142.239-.258.389-.343.1486-.08361.3135-.1343.4834-.14862.17-.01432.341.00806.5016.06562.161.058.309.151.435.273.126.121.227.269.298.434.1429.33479.15.71201.02 1.052-.065.168-.16.32-.282.447l-11.396 13.28496c-.1134.1344-.2538.2434-.41203.32-.15541.0752-.32538.1155-.498.118z" fill="currentColor"/></svg>