<svg   viewBox="0 0 24 24" fill="none" xmlns="http://www.w3.org/2000/svg">
<path d="M9.30797 20C9.13697 20 8.96797 19.961 8.81097 19.888C8.65297 19.8137 8.51228 19.7071 8.39797 19.575L2.33797 12.707C2.10915 12.4434 1.98873 12.1029 2.00097 11.754C2.00956 11.4064 2.15006 11.075 2.39397 10.827C2.63497 10.585 2.95697 10.457 3.28797 10.467C3.61797 10.479 3.93197 10.629 4.15797 10.887L9.29497 16.719L19.781 4.49704C19.887 4.35504 20.02 4.23904 20.17 4.15404C20.3186 4.07043 20.4835 4.01974 20.6534 4.00542C20.8234 3.9911 20.9944 4.01348 21.155 4.07104C21.316 4.12904 21.464 4.22204 21.59 4.34404C21.716 4.46504 21.817 4.61304 21.888 4.77804C22.0309 5.11283 22.038 5.49005 21.908 5.83004C21.843 5.99804 21.748 6.15004 21.626 6.27704L10.23 19.562C10.1166 19.6964 9.9762 19.8054 9.81797 19.882C9.66256 19.9572 9.49259 19.9975 9.31997 20H9.30797Z" fill="currentColor"/>
</svg>
