<svg fill="none" height="24" viewBox="0 0 24 24" width="24" xmlns="http://www.w3.org/2000/svg" xmlns:xlink="http://www.w3.org/1999/xlink"><clipPath id="a"><path d="m0 0h24v24h-24z"/></clipPath><g clip-path="url(#a)"><path clip-rule="evenodd" d="m12 0c6.6274 0 12 5.37258 12 12 0 6.6274-5.3726 12-12 12-6.62742 0-12-5.3726-12-12 0-6.62742 5.37258-12 12-12zm-2.426 14.742 7.67-7.96898c.0318-.03375.0701-.06064.1127-.07902s.0884-.02786.1348-.02786.0922.00948.1348.02786.0809.04527.1127.07902l.825.857c.0657.06945.1023.16141.1023.257s-.0366.18755-.1023.257l-8.743 9.08298c-.03179.0338-.07014.0607-.11271.079-.04256.0184-.08843.0279-.13479.0279s-.09223-.0095-.1348-.0279c-.04256-.0183-.08091-.0452-.1127-.079l-3.89-4.042c-.06569-.0694-.10229-.1614-.10229-.257s.0366-.1875.10229-.257l.825-.857c.03177-.0336.07007-.0603.11254-.0786s.08822-.0277.13446-.0277.09199.0094.13446.0277.08076.045.11254.0786z" fill="#fff" fill-rule="evenodd"/></g></svg>