<svg fill="none" height="24" viewBox="0 0 24 24" width="24" xmlns="http://www.w3.org/2000/svg"><path d="m15.338 21.9999c-.2134.0006-.4242-.0467-.617-.1382-.1927-.0915-.3626-.2251-.497-.3908l-6.89902-8.57c-.20996-.2556-.32474-.5762-.32474-.907s.11478-.6513.32474-.907l7.14202-8.57097c.2424-.29173.5908-.47523.9685-.51011s.7537.08171 1.0455.32411c.2917.24241.4752.59078.5101.96848s-.0817.75378-.3241 1.04552l-6.385 7.65697 6.17 7.656c.1745.2097.2853.4649.3194.7355.0341.2707-.01.5454-.1271.7918-.117.2463-.3021.4541-.5334.5986-.2313.1446-.5002.2199-.7729.2171z" fill="currentColor"/></svg>