<svg fill="none" height="24" viewBox="0 0 24 24" width="24" xmlns="http://www.w3.org/2000/svg"><path d="m8.65906 21.9999c.21339.0006.42419-.0467.61695-.1382s.36259-.2251.49705-.3908l6.90004-8.57c.2101-.2555.325-.5761.325-.907 0-.3308-.1149-.6514-.325-.907l-7.14304-8.57097c-.24241-.29173-.59078-.47523-.96848-.51011s-.75379.08171-1.04552.32411c-.29174.24241-.47524.59078-.51012.96848s.08171.75378.32412 1.04552l6.38604 7.65697-6.17104 7.656c-.17497.2096-.28618.465-.32046.7359-.03428.2708.00981.5458.12705.7924s.3027.4544.53442.5988.49998.2193.77299.2159z" fill="currentColor"/></svg>