<svg fill="none" height="24" viewBox="0 0 24 24" width="24" xmlns="http://www.w3.org/2000/svg"><path d="m21.999 8.65993c.0006.21342-.0465.42427-.1381.61705-.0915.19279-.2251.3626-.3909.49695l-8.57 6.89997c-.2557.2104-.5765.3255-.9075.3255-.3311 0-.6519-.1151-.9075-.3255l-8.57004-7.14397c-.29174-.2424-.47523-.59078-.51012-.96848-.03488-.37769.08171-.75378.32412-1.04552.2424-.29174.59078-.47523.96848-.51011.37769-.03488.75378.08171 1.04552.32411l7.65704 6.38797 7.657-6.17097c.2097-.17453.465-.28537.7357-.31942s.5455.01011.7919.12727c.2465.11716.4542.30242.5987.53388.1444.23146.2196.49944.2167.77227z" fill="currentColor"/></svg>