<svg fill="none" height="24" viewBox="0 0 24 24" width="24" xmlns="http://www.w3.org/2000/svg" xmlns:xlink="http://www.w3.org/1999/xlink"><clipPath id="a"><path d="m0 0h24v24h-24z"/></clipPath><g clip-path="url(#a)"><path d="m23.6589 18.357-9.167-16.88304c-.2428-.44579-.6012-.817886-1.0377-1.077143-.4364-.259257-.9346-.39608458-1.4423-.39608458-.5076 0-1.0058.13682758-1.4422.39608458-.4365.259257-.79495.631353-1.03775 1.077143l-9.174002 16.88304c-.240162.431-.3631599.9174-.3567318 1.4108.00642809.4934.1420568.9764.3933678 1.4011.251311.4246.609526.7759 1.038936 1.0189.42941.2431.91502.3693 1.40843.3662h18.33295c.4895.0006.9708-.1261 1.3965-.3676s.7814-.5896 1.032-1.01c.2506-.4205.3876-.8989.3975-1.3883.0099-.4893-.1076-.9729-.341-1.4031zm-13.053-12.04604c.0098-.36785.1628-.71734.4265-.97405.2636-.25672.6171-.40037.985-.40037.368 0 .7215.14365.9851.40037.2636.25671.4167.6062.4264.97405v6.48404c0 .3744-.1487.7336-.4135.9984s-.624.4136-.9985.4136c-.3744 0-.7336-.1488-.9984-.4136s-.4136-.624-.4136-.9984v-6.48404zm1.449 12.71404c-.2173.0076-.4341-.0286-.6372-.1065-.2031-.078-.3884-.196-.5449-.3471s-.2809-.3321-.3659-.5324c-.0851-.2002-.1289-.4155-.1289-.633 0-.2176.0438-.4329.1289-.6331.085-.2002.2094-.3813.3659-.5324s.3418-.2691.5449-.347c.2031-.078.4199-.1142.6372-.1065.4196.0147.817.1917 1.1086.4938.2916.302.4545.7054.4545 1.1252s-.1629.8232-.4545 1.1252-.689.479-1.1086.4938z" fill="#fff"/></g></svg>