<svg fill="none" height="24" viewBox="0 0 24 24" width="24" xmlns="http://www.w3.org/2000/svg"><path d="m4.42406 19.7577c-.53309 0-.98909-.1898-1.36946-.5694-.18345-.1775-.32867-.3905-.42673-.6262-.09805-.2356-.14687-.4888-.14345-.744v-11.63637c0-.53309.19055-.98909.57018-1.36945.17738-.18333.39035-.32848.62584-.42653.2355-.09805.48855-.14693.74362-.14365h5.81814l1.9397 1.93963h7.7571c.5338 0 .9905.18982 1.3701.57019.3804.38036.5702.83636.5695 1.36945v9.69673c0 .5331-.1891.9898-.5687 1.3702-.1772.1837-.3903.329-.626.427-.2357.0979-.489.1464-.7442.1424h-15.51637z" fill="#000"/></svg>