<svg fill="none" height="24" viewBox="0 0 24 24" width="24" xmlns="http://www.w3.org/2000/svg"><path d="m2.822 10.183-.412.41-.41-.41.41-.408zm19.178 9.24c.0001.0761-.0148.1516-.044.2219s-.0721.1342-.1261.1878c-.054.0537-.1182.0961-.1887.1248s-.1461.0432-.2222.0425c-.1532-.0005-.3001-.0613-.4088-.1693-.1088-.108-.1706-.2545-.1722-.4077zm-13.778-3.056-5.812-5.775.823-.817 5.812 5.774zm-5.812-6.592 5.812-5.775.823.818-5.812 5.774zm.412-.17h11.623v1.156h-11.623v-1.155zm19.178 7.509v2.309h-1.162v-2.309zm-7.555-7.507c2.0011-.00088 3.9214.7896 5.342 2.199.7006.695 1.2568 1.5217 1.6366 2.4325s.5757 1.8887.5764 2.8755h-1.162c0-1.685-.674-3.301-1.873-4.493-1.2021-1.1923-2.8269-1.8609-4.52-1.86v-1.155z" fill="#000"/><path d="m2.41 10.592.412-.409-.412-.408m0 .817-.41-.409.41-.408m0 .817 5.812 5.775.823-.818-5.812-5.774zm0-.817 5.812-5.775.823.818-5.812 5.774zm19.59 9.648c.0001.0761-.0148.1516-.044.2219s-.0721.1342-.1261.1878c-.054.0537-.1182.0961-.1887.1248s-.1461.0432-.2222.0425c-.1532-.0005-.3001-.0613-.4088-.1693-.1088-.108-.1706-.2545-.1722-.4077m1.162 0h-1.162m1.162 0v-2.31m-1.162 2.31v-2.31m1.162 0c-.0006-.987-.1964-1.9641-.5762-2.8751s-.9361-1.7378-1.6368-2.4329c-1.4206-1.4094-3.3409-2.19988-5.342-2.199m7.555 7.507h-1.162m0 0c-.0005-.8353-.1662-1.6622-.4877-2.4331-.3214-.771-.7923-1.4707-1.3853-2.0589-1.199-1.191-2.825-1.86-4.52-1.86m0-1.155h-11.623v1.155h11.623m0-1.155v1.155" stroke="#000" stroke-width=".8"/></svg>