<svg fill="none" height="24" viewBox="0 0 24 24" width="24" xmlns="http://www.w3.org/2000/svg"><path d="m20.3375 13.5932 1.6414-7.31245c.1185-.52798-.2778-1.03075-.8126-1.03075h-13.63824l-.31827-1.57535c-.0793-.39266-.42055-.67465-.81642-.67465h-3.56004c-.46024 0-.83333.37775-.83333.84375v.5625c0 .466.37309.84375.83333.84375h2.4265l2.43916 12.0739c-.58354.3398-.97677.9769-.97677 1.7073 0 1.0874.87056 1.9688 1.94445 1.9688s1.94443-.8814 1.94443-1.9688c0-.551-.2238-1.0488-.5842-1.4062h7.2795c-.3603.3574-.5842.8552-.5842 1.4062 0 1.0874.8706 1.9688 1.9445 1.9688s1.9444-.8814 1.9444-1.9688c0-.7794-.4475-1.453-1.0965-1.772l.1916-.8535c.1185-.5279-.2779-1.0307-.8126-1.0307h-9.32009l-.22726-1.125h10.17865c.3891 0 .7264-.2726.8126-.6568z" fill="#000"/></svg>