<svg fill="none" height="24" viewBox="0 0 24 24" width="24" xmlns="http://www.w3.org/2000/svg"><path clip-rule="evenodd" d="m13.583 5.06303c-.1423-.00027-.2833.02761-.4148.08201-.1316.05441-.251.13428-.3516.23502-.1005.10074-.1802.22035-.2343.35198-.0542.13162-.0818.27266-.0813.41499v1.058c.0003 1.39565-.5527 2.7345-1.538 3.72297-.7323.7347-1.66596 1.2359-2.68299 1.44v5.42c0 .568.225 1.113.626 1.515.4.402.944.627 1.50999.627h7.389c.029 0 .058.002.087.004.1.009.268-.021.476-.23.214-.214.423-.58.542-1.078l1.029-5.157c-.0216-.2716-.1445-.5253-.3444-.7105s-.4621-.2886-.7346-.2895h-3.166c-.2732 0-.5351-.1085-.7283-.3017-.1932-.1931-.3017-.4551-.3017-.7283v-5.29297c-.0005-.28664-.1143-.56145-.3167-.76451-.2023-.20307-.4767-.31791-.7633-.31949zm-5.70299 16.07297c-.19356.2653-.4469.4812-.73948.6303-.29257.149-.61616.2271-.94452.2277h-2.11c-.27389.0001-.54509-.0539-.79804-.159-.25294-.105-.48266-.2589-.67596-.453-.39166-.3922-.61175-.9237-.612-1.478v-7.408c-.00079-.2742.05253-.5458.15691-.7993.10438-.2536.25776-.484.45135-.6782.1936-.1941.4236-.3482.67684-.4533.25323-.1051.52472-.1592.7989-.1592h3.167c.41933-.0001.8345-.083 1.22178-.2438s.73906-.39631 1.03522-.69317c.59899-.6.93499-1.415.93499-2.264v-1.058c0-.835.331-1.636.92-2.226.2913-.29196.6373-.52359 1.0183-.68164.3809-.15804.7893-.23939 1.2017-.23939s.8208.08135 1.2017.23939c.381.15805.727.38968 1.0183.68164.59.59.92 1.391.92 2.226v4.25997h2.137c.833 0 1.631.331 2.22.921.59.59.92 1.392.92 2.227 0 .068-.007.135-.02.202l-1.055 5.291c-.0025.0111-.0051.0221-.008.033-.185.793-.55 1.536-1.094 2.082-.543.544-1.263.883-2.056.83h-7.35c-.917-.0001-1.80763-.3011-2.53699-.857zm-1.657-8.666h-2.139c-.00699.0003-.0136.0032-.01845.0083-.00485.005-.00756.0117-.00755.0187v7.407c0 .007.003.014.008.018.00472.005.01118.0078.018.008h2.111c.00354.0001.00706-.0006.01033-.002.00326-.0014.00621-.0034.00867-.006.00492-.0047.0078-.0112.008-.018v-7.435z" fill="currentColor" fill-rule="evenodd"/></svg>