<svg   viewBox="0 0 24 24" fill="none" xmlns="http://www.w3.org/2000/svg">
<path d="M19.8571 4.5H17.7143V2.46875C17.7143 2.21094 17.4732 2 17.1786 2H15.3929C15.0982 2 14.8571 2.21094 14.8571 2.46875V4.5H9.14286V2.46875C9.14286 2.21094 8.90179 2 8.60714 2H6.82143C6.52679 2 6.28571 2.21094 6.28571 2.46875V4.5H4.14286C2.95982 4.5 2 5.33984 2 6.375V20.125C2 21.1602 2.95982 22 4.14286 22H19.8571C21.0402 22 22 21.1602 22 20.125V6.375C22 5.33984 21.0402 4.5 19.8571 4.5ZM18 19H6C5.85268 19 5.5 19 5 19V8H19V19C18.5 19 18.5 19 18 19Z" fill="currentColor"/>
</svg>
