<svg width="32" height="32" viewBox="0 0 32 32" fill="none" xmlns="http://www.w3.org/2000/svg">
<g clip-path="url(#clip0_2137_27217)">
<path fill-rule="evenodd" clip-rule="evenodd" d="M16 1.88235C8.20304 1.88235 1.88235 8.20304 1.88235 16C1.88235 23.797 8.20304 30.1176 16 30.1176C23.797 30.1176 30.1176 23.797 30.1176 16C30.1176 8.20304 23.797 1.88235 16 1.88235ZM0 16C0 7.16344 7.16344 0 16 0C24.8366 0 32 7.16344 32 16C32 24.8366 24.8366 32 16 32C7.16344 32 0 24.8366 0 16Z" fill="black"/>
<path fill-rule="evenodd" clip-rule="evenodd" d="M23.2727 18.5921V13.4078C23.2727 13.4078 23.2727 10.9091 20.7661 10.9091H11.2331C11.2331 10.9091 8.72729 10.9091 8.72729 13.4078V18.5921C8.72729 18.5921 8.72729 21.0909 11.2331 21.0909H20.7661C20.7661 21.0909 23.2727 21.0909 23.2727 18.5921ZM18.8239 16.0072L14.0621 18.795V13.2186L18.8239 16.0072Z" fill="black"/>
</g>
<defs>
<clipPath id="clip0_2137_27217">
<rect width="32" height="32" fill="white"/>
</clipPath>
</defs>
</svg>
