<svg fill="none" height="32" viewBox="0 0 32 32" width="32" xmlns="http://www.w3.org/2000/svg" xmlns:xlink="http://www.w3.org/1999/xlink"><clipPath id="a"><path d="m0 0h32v32h-32z"/></clipPath><g clip-path="url(#a)" clip-rule="evenodd" fill="currentColor" fill-rule="evenodd"><path d="m16 1.88235c-7.79696 0-14.11765 6.32069-14.11765 14.11765 0 7.797 6.32069 14.1176 14.11765 14.1176 7.797 0 14.1176-6.3206 14.1176-14.1176 0-7.79696-6.3206-14.11765-14.1176-14.11765zm-16 14.11765c0-8.83656 7.16344-16 16-16 8.8366 0 16 7.16344 16 16 0 8.8366-7.1634 16-16 16-8.83656 0-16-7.1634-16-16z"/><path d="m16 9.12913c2.2378 0 2.5028.00852 3.3866.04884.8171.0373 1.2609.17383 1.5562.28857.3912.15204.6704.33368.9637.62696.2932.2932.4749.5725.6269.9636.1148.2954.2513.7391.2886 1.5563.0403.8837.0488 1.1488.0488 3.3866s-.0085 2.5029-.0488 3.3866c-.0373.8171-.1738 1.2609-.2886 1.5563-.152.3911-.3337.6703-.6269.9636-.2933.2933-.5725.4749-.9637.6269-.2953.1148-.7391.2513-1.5562.2886-.8836.0403-1.1487.0488-3.3866.0488-2.238 0-2.503-.0085-3.3866-.0488-.8172-.0373-1.2609-.1738-1.5563-.2886-.3912-.152-.6704-.3336-.9637-.6269-.29321-.2933-.47485-.5725-.62686-.9636-.11477-.2954-.25131-.7392-.2886-1.5563-.04032-.8837-.04884-1.1488-.04884-3.3866s.00852-2.5029.04884-3.3866c.03729-.8172.17383-1.2609.2886-1.5563.15201-.3911.33365-.6704.62686-.9636.2933-.29328.5725-.47492.9637-.62696.2954-.11474.7391-.25127 1.5562-.28857.8838-.04032 1.1488-.04884 3.3867-.04884zm.835-1.5095c1.5314.00265 1.8498.01467 2.6204.04983.8921.04072 1.5013.18237 2.0344.38957.5511.21418 1.0185.50075 1.4844.96667.466.46592.7525.93331.9667 1.4844.2072.5332.3489 1.1424.3896 2.0345.0352.7705.0472 1.0889.0498 2.6203l.0006.6066v.2285.2285l-.0006.6065c-.0026 1.5314-.0146 1.8498-.0498 2.6204-.0407.8921-.1824 1.5013-.3896 2.0345-.2142.5511-.5007 1.0185-.9667 1.4844-.4659.4659-.9333.7525-1.4844.9667-.5331.2071-1.1423.3488-2.0344.3895-.7706.0352-1.089.0472-2.6204.0498l-.6066.0006h-.2284c-.0785 0-.1546 0-.2285 0l-.6066-.0006c-1.5314-.0026-1.8498-.0146-2.6204-.0498-.8921-.0407-1.5013-.1824-2.0344-.3895-.55112-.2142-1.01851-.5008-1.48443-.9667s-.75249-.9334-.96667-1.4844c-.2072-.5332-.34885-1.1424-.38958-2.0345-.03516-.7706-.04715-1.089-.04979-2.6204v-1.6701c.00264-1.5314.01463-1.8498.04979-2.6203.04073-.8921.18238-1.5013.38958-2.0345.21418-.55109.50075-1.01848.96667-1.4844s.93331-.75249 1.48443-.96667c.5331-.2072 1.1423-.34885 2.0344-.38957.7706-.03516 1.089-.04718 2.6204-.04983zm-.8184 4.09007c-2.3786 0-4.3069 1.9283-4.3069 4.3069s1.9283 4.3069 4.3069 4.3069 4.3069-1.9283 4.3069-4.3069-1.9283-4.3069-4.3069-4.3069zm0 1.5112c1.544 0 2.7957 1.2517 2.7957 2.7957s-1.2517 2.7957-2.7957 2.7957-2.7957-1.2517-2.7957-2.7957 1.2517-2.7957 2.7957-2.7957zm4.4399-2.7085c-.551 0-.9977.4467-.9977.9978 0 .551.4467.9977.9977.9977.5511 0 .9977-.4467.9977-.9977 0-.5511-.4466-.9978-.9977-.9978z"/></g></svg>