<svg fill="none" height="32" viewBox="0 0 32 32" width="32" xmlns="http://www.w3.org/2000/svg"><g clip-rule="evenodd" fill="#000" fill-rule="evenodd"><path d="m16 1.88235c-7.79696 0-14.11765 6.32069-14.11765 14.11765 0 7.797 6.32069 14.1176 14.11765 14.1176 7.797 0 14.1176-6.3206 14.1176-14.1176 0-7.79696-6.3206-14.11765-14.1176-14.11765zm-16 14.11765c0-8.83656 7.16344-16 16-16 8.8366 0 16 7.16344 16 16 0 8.8366-7.1634 16-16 16-8.83656 0-16-7.1634-16-16z"/><path d="m17.3826 24.7618h-3.7161v-8.763h-1.857v-3.0194h1.857v-1.8128c0-2.46308 1.0479-3.92856 4.0272-3.92856h2.4797v3.02056h-1.5498c-1.1598 0-1.2364.4219-1.2364 1.2094l-.0051 1.5114h2.8084l-.3287 3.0194h-2.4797v8.763z"/></g></svg>