<svg   viewBox="0 0 32 32" fill="none" xmlns="http://www.w3.org/2000/svg">
<g clip-path="url(#clip0_2137_27221)">
<path fill-rule="evenodd" clip-rule="evenodd" d="M16 1.88235C8.20304 1.88235 1.88235 8.20304 1.88235 16C1.88235 23.797 8.20304 30.1176 16 30.1176C23.797 30.1176 30.1176 23.797 30.1176 16C30.1176 8.20304 23.797 1.88235 16 1.88235ZM0 16C0 7.16344 7.16344 0 16 0C24.8366 0 32 7.16344 32 16C32 24.8366 24.8366 32 16 32C7.16344 32 0 24.8366 0 16Z" fill="currentColor"/>
<path fill-rule="evenodd" clip-rule="evenodd" d="M22.2009 11.2514C22.8481 10.8429 23.3447 10.1953 23.5778 9.4238C22.9718 9.80293 22.3022 10.0771 21.5877 10.2256C21.0176 9.58264 20.2027 9.18176 19.3009 9.18176C17.5707 9.18176 16.1687 10.6614 16.1687 12.4862C16.1687 12.7452 16.1947 12.9977 16.2485 13.2388C13.6452 13.1007 11.3368 11.7865 9.79048 9.78592C9.52065 10.2757 9.36646 10.8429 9.36646 11.448C9.36646 12.5939 9.91957 13.6056 10.7604 14.1993C10.2468 14.1823 9.76358 14.032 9.34046 13.7862V13.8268C9.34046 15.4285 10.4198 16.7644 11.855 17.0669C11.5914 17.1445 11.3153 17.1832 11.0285 17.1832C10.8268 17.1832 10.6296 17.1634 10.4395 17.1246C10.8375 18.4369 11.9948 19.3937 13.3664 19.4193C12.2934 20.3061 10.9424 20.8337 9.47493 20.8337C9.22213 20.8337 8.97202 20.8195 8.72729 20.7883C10.1141 21.7252 11.7609 22.2727 13.5304 22.2727C19.2946 22.2727 22.4447 17.2371 22.4447 12.87C22.4447 12.7263 22.4429 12.5835 22.4366 12.4427C23.0489 11.9766 23.5814 11.3942 24 10.7314C23.438 10.9942 22.8337 11.172 22.2009 11.2514Z" fill="currentColor"/>
</g>
<defs>
<clipPath id="clip0_2137_27221">
<rect   fill="white"/>
</clipPath>
</defs>
</svg>
