<svg fill="none" height="32" viewBox="0 0 32 32" width="32" xmlns="http://www.w3.org/2000/svg" xmlns:xlink="http://www.w3.org/1999/xlink"><clipPath id="a"><path d="m0 0h32v32h-32z"/></clipPath><g clip-path="url(#a)" clip-rule="evenodd" fill="currentColor" fill-rule="evenodd"><path d="m16 1.88235c-7.79696 0-14.11765 6.32069-14.11765 14.11765 0 7.797 6.32069 14.1176 14.11765 14.1176 7.797 0 14.1176-6.3206 14.1176-14.1176 0-7.79696-6.3206-14.11765-14.1176-14.11765zm-16 14.11765c0-8.83656 7.16344-16 16-16 8.8366 0 16 7.16344 16 16 0 8.8366-7.1634 16-16 16-8.83656 0-16-7.1634-16-16z"/><path d="m8.72729 13.7849c0 1.8683.70323 3.5302 2.21051 4.1496.2472.1015.4684.0036.5402-.2721.0498-.1903.1678-.6713.2199-.8718.0724-.2721.0445-.3676-.1553-.6051-.4341-.5162-.7121-1.1839-.7121-2.1303 0-2.7444 2.0403-5.20175 5.3139-5.20175 2.8983 0 4.4904 1.78245 4.4904 4.16225 0 3.1316-1.3775 5.7752-3.4213 5.7752-1.1296 0-1.9745-.9399-1.7035-2.0922.3243-1.3761.9522-2.8613.9522-3.8543 0-.8891-.4743-1.6303-1.4551-1.6303-1.1538 0-2.0818 1.2013-2.0818 2.8106 0 1.0258.3445 1.7186.3445 1.7186s-1.1811 5.0371-1.3881 5.919c-.412 1.7568-.0616 3.9098-.032 4.127.0172.1289.1815.16.2562.0627.1067-.1402 1.4806-1.8481 1.949-3.5541.1316-.4834.7583-2.9855.7583-2.9855.3754.7197 1.4711 1.3534 2.6363 1.3534 3.4699 0 5.8232-3.183 5.8232-7.4437 0-3.2217-2.7115-6.2221-6.8324-6.2221-5.1272 0-7.71301 3.6997-7.71301 6.7849z"/></g></svg>