<svg width="32" height="32" viewBox="0 0 32 32" fill="none" xmlns="http://www.w3.org/2000/svg">
<g clip-path="url(#clip0_2369_17669)">
<path fill-rule="evenodd" clip-rule="evenodd" d="M16 1.88235C8.20304 1.88235 1.88235 8.20304 1.88235 16C1.88235 23.797 8.20304 30.1176 16 30.1176C23.797 30.1176 30.1176 23.797 30.1176 16C30.1176 8.20304 23.797 1.88235 16 1.88235ZM0 16C0 7.16344 7.16344 0 16 0C24.8366 0 32 7.16344 32 16C32 24.8366 24.8366 32 16 32C7.16344 32 0 24.8366 0 16Z" fill="black"/>
<path d="M20.44 9.82C19.7564 9.03962 19.3797 8.03743 19.38 7H16.29V19.4C16.2662 20.071 15.9829 20.7066 15.4998 21.1729C15.0167 21.6393 14.3714 21.8999 13.7 21.9C12.28 21.9 11.1 20.74 11.1 19.3C11.1 17.58 12.76 16.29 14.47 16.82V13.66C11.02 13.2 8 15.88 8 19.3C8 22.63 10.76 25 13.69 25C16.83 25 19.38 22.45 19.38 19.3V13.01C20.633 13.9099 22.1374 14.3926 23.68 14.39V11.3C23.68 11.3 21.8 11.39 20.44 9.82Z" fill="black"/>
</g>
<defs>
<clipPath id="clip0_2369_17669">
<rect width="32" height="32" fill="white"/>
</clipPath>
</defs>
</svg>
