<svg fill="none" height="24" viewBox="0 0 24 24" width="24" xmlns="http://www.w3.org/2000/svg"><path d="m8.53847 13.1538c-.22822 0-.4513-.0676-.64105-.1944-.18974-.1268-.33764-.307-.42497-.5179-.08733-.2108-.11018-.4428-.06566-.6666.04453-.2238.15442-.4294.31579-.5908.16136-.1613.36696-.2713.59078-.3158s.45582-.0217.66666.0657c.21084.0873.39105.2352.51783.4249.12679.1898.19446.4129.19446.6411 0 .306-.12156.5995-.33795.8159s-.50988.3379-.81589.3379zm6.92303-2.3076c-.2282 0-.4513.0676-.641.1944s-.3377.307-.425.5179c-.0873.2108-.1101.4428-.0657.6666.0446.2238.1545.4294.3158.5908.1614.1613.367.2713.5909.3158.2237.0445.4557.0216.6666-.0657.2108-.0873.3911-.2352.5178-.4249.1268-.1898.1945-.4129.1945-.6411 0-.306-.1216-.5995-.3379-.8159-.2164-.2164-.51-.3379-.816-.3379zm-1.1797 4.349c-.6852.4252-1.4755.6505-2.2818.6505s-1.5966-.2253-2.28169-.6505c-.17268-.1089-.38151-.1447-.58059-.0997-.19908.0451-.37209.1674-.48098.34-.10889.1727-.14475.3816-.09966.5807.04507.199.1674.372.34004.481.93088.5803 2.00588.8879 3.10288.8879s2.172-.3076 3.1029-.8879c.1726-.109.2949-.282.34-.481.0451-.1991.0093-.408-.0996-.5807-.1089-.1726-.2819-.2949-.481-.34-.1991-.045-.4079-.0092-.5805.0997zm7.7182-3.1952c0 1.9778-.5865 3.9112-1.6853 5.5557s-2.6606 2.9262-4.4879 3.6831c-1.8272.7569-3.8379.9549-5.7777.569-1.93981-.3858-3.72164-1.3382-5.12016-2.7367-1.39853-1.3986-2.35094-3.1804-2.73679-5.1202s-.18782-3.9504.56906-5.77773c.75687-1.82726 2.0386-3.38905 3.68309-4.48786 1.64449-1.09882 3.5779-1.68531 5.5557-1.68531 2.6513.0028 5.1932 1.05727 7.068 2.93202 1.8748 1.87476 2.9292 4.41667 2.932 7.06798zm-1.5385 0c-.0027-2.17823-.8442-4.27173-2.3498-5.84579-1.5057-1.57406-3.5598-2.50772-5.7357-2.60709-1.1145 1.56634-1.1452 3.05673-1.1452 3.06826 0 .20402.081.39967.2253.54394.1442.14425.3399.2253.5439.2253s.3997-.08105.5439-.2253c.1443-.14427.2253-.33992.2253-.54394 0-.20401.0811-.39966.2253-.54393.1443-.14425.34-.2253.544-.2253s.3997.08105.5439.2253c.1442.14427.2253.33992.2253.54393 0 .61204-.2432 1.19901-.6759 1.63179-.4328.43278-1.0197.67591-1.6318.67591-.612 0-1.199-.24313-1.6318-.67591-.43274-.43278-.67589-1.01975-.67589-1.63179 0-.07019.01254-1.375.81349-2.94519-1.5843.28424-3.05464 1.01444-4.23851 2.10493s-2.03215 2.49601-2.44531 4.05165c-.41316 1.55563-.37405 3.19683.11274 4.73103s1.40106 2.8977 2.63553 3.9306c1.23447 1.0328 2.73792 1.6922 4.33395 1.9006 1.596.2085 3.2183-.0426 4.6767-.7238 1.4583-.6811 2.6921-1.7641 3.5566-3.1218s1.3238-2.9339 1.324-4.5434z" fill="#000"/></svg>