<svg   viewBox="0 0 24 24" fill="none" xmlns="http://www.w3.org/2000/svg">
<path d="M21.999 8.65993C21.9996 8.87335 21.9525 9.0842 21.8609 9.27698C21.7694 9.46977 21.6358 9.63958 21.47 9.77393L12.9 16.6739C12.6443 16.8843 12.3235 16.9994 11.9925 16.9994C11.6614 16.9994 11.3406 16.8843 11.085 16.6739L2.51496 9.52993C2.22322 9.28753 2.03973 8.93915 2.00484 8.56145C1.96996 8.18376 2.08655 7.80767 2.32896 7.51593C2.57136 7.22419 2.91974 7.0407 3.29744 7.00582C3.67513 6.97094 4.05122 7.08753 4.34296 7.32993L12 13.7179L19.657 7.54693C19.8667 7.3724 20.122 7.26156 20.3927 7.22751C20.6634 7.19346 20.9382 7.23762 21.1846 7.35478C21.4311 7.47194 21.6388 7.6572 21.7833 7.88866C21.9277 8.12012 22.0029 8.3881 22 8.66093L21.999 8.65993Z" fill="currentColor"/>
</svg>
