<svg fill="none" height="24" viewBox="0 0 24 24" width="24" xmlns="http://www.w3.org/2000/svg"><path clip-rule="evenodd" d="m20.5714 9.14286h1.4286v-7.14286h-7.1429v1.42857h4.7037l-9.4908 9.49143 1.01 1.01 9.4914-9.49143zm-16.42854 12.85714h14.28574c1.2143 0 2.1428-.9286 2.1428-2.1429v-7.8571h-1.4285v7.8571c0 .4286-.2858.7143-.7143.7143h-14.28574c-.42857 0-.71429-.2857-.71429-.7143v-14.28567c0-.42857.28572-.71429.71429-.71429h7.85714v-1.42857h-7.85714c-1.21429 0-2.14286.92857-2.14286 2.14286v14.28567c0 1.2143.92857 2.1429 2.14286 2.1429z" fill="#000" fill-rule="evenodd"/></svg>