<svg   viewBox="0 0 24 24" fill="none" xmlns="http://www.w3.org/2000/svg">
<path d="M14.249 5.75C14.249 6.74456 13.8539 7.69839 13.1507 8.40165C12.4474 9.10491 11.4936 9.5 10.499 9.5C9.50444 9.5 8.55061 9.10491 7.84735 8.40165C7.14409 7.69839 6.749 6.74456 6.749 5.75C6.749 4.75544 7.14409 3.80161 7.84735 3.09835C8.55061 2.39509 9.50444 2 10.499 2C11.4936 2 12.4474 2.39509 13.1507 3.09835C13.8539 3.80161 14.249 4.75544 14.249 5.75ZM3 19.868C3.03213 17.9004 3.83634 16.0242 5.23918 14.644C6.64202 13.2639 8.53109 12.4905 10.499 12.4905C12.4669 12.4905 14.356 13.2639 15.7588 14.644C17.1617 16.0242 17.9659 17.9004 17.998 19.868C15.6457 20.9478 13.0873 21.5046 10.499 21.5C7.823 21.5 5.283 20.916 3 19.868Z" fill="currentColor" stroke-width="1.5" stroke-linecap="round" stroke-linejoin="round"/>
<path d="M17.5 22.5C20.2614 22.5 22.5 20.2614 22.5 17.5C22.5 14.7386 20.2614 12.5 17.5 12.5C14.7386 12.5 12.5 14.7386 12.5 17.5C12.5 20.2614 14.7386 22.5 17.5 22.5Z" fill="#558F3F" stroke="white"/>
<path fill-rule="evenodd" clip-rule="evenodd" d="M19.8557 16.1462C19.9022 16.1926 19.9392 16.2478 19.9644 16.3085C19.9896 16.3693 20.0026 16.4344 20.0026 16.5002C20.0026 16.5659 19.9896 16.6311 19.9644 16.6918C19.9392 16.7525 19.9022 16.8077 19.8557 16.8542L17.3557 19.3542C17.2618 19.448 17.1344 19.5008 17.0017 19.5008C16.8689 19.5008 16.7416 19.448 16.6477 19.3542C16.5538 19.2603 16.501 19.1329 16.501 19.0002C16.501 18.8674 16.5538 18.74 16.6477 18.6462L19.1477 16.1462C19.1941 16.0996 19.2493 16.0627 19.31 16.0374C19.3708 16.0122 19.4359 15.9993 19.5017 15.9993C19.5674 15.9993 19.6326 16.0122 19.6933 16.0374C19.754 16.0627 19.8092 16.0996 19.8557 16.1462Z" fill="white"/>
<path fill-rule="evenodd" clip-rule="evenodd" d="M15.1478 17.1459C15.1012 17.1924 15.0643 17.2475 15.0391 17.3083C15.0139 17.369 15.0009 17.4342 15.0009 17.4999C15.0009 17.5657 15.0139 17.6308 15.0391 17.6916C15.0643 17.7523 15.1012 17.8075 15.1478 17.8539L16.6478 19.3539C16.7417 19.4478 16.869 19.5005 17.0018 19.5005C17.1346 19.5005 17.2619 19.4478 17.3558 19.3539C17.4497 19.26 17.5024 19.1327 17.5024 18.9999C17.5024 18.8671 17.4497 18.7398 17.3558 18.6459L15.8558 17.1459C15.8094 17.0994 15.7542 17.0624 15.6934 17.0372C15.6327 17.012 15.5676 16.999 15.5018 16.999C15.436 16.999 15.3709 17.012 15.3102 17.0372C15.2494 17.0624 15.1943 17.0994 15.1478 17.1459Z" fill="white"/>
</svg>
