<svg fill="none" height="24" viewBox="0 0 24 24" width="24" xmlns="http://www.w3.org/2000/svg"><path d="m21.4279 13.1988c.3654-.58.5721-1.1988.5721-1.9468 0-1.71938-1.5507-3.34302-3.5758-3.34302h-1.52c.205-.50039.3687-1.09882.3687-1.81796 0-2.84352-1.5704-4.09102-3.9696-4.09102-2.5669 0-2.4205 3.70832-2.99 4.24219-.94776.88855-2.06726 2.59558-2.86497 3.25781h-4.115c-.73637 0-1.33333.5596-1.33333 1.25v9.375c0 .6904.59696 1.25 1.33333 1.25h2.66667c.62054 0 1.142-.3974 1.29075-.9355 1.85454.0391 3.12755 1.5601 7.40845 1.5601.3008 0 .6341.0004.9258.0004 3.2132 0 4.6661-1.54 4.7058-3.7238.555-.7198.8458-1.6845.7225-2.6168.4106-.7208.5694-1.5759.3746-2.4606zm-2.5729 2.1028c.5233.8254.0525 1.93-.5808 2.2488.3208 1.9055-.7337 2.5742-2.2134 2.5742h-1.5758c-2.985 0-4.91787-1.4773-7.15167-1.4773v-7.2723h.455c1.18167 0 2.83247-2.76914 3.93917-3.80703 1.1817-1.10781.7879-2.9543 1.5758-3.69297 1.9696 0 1.9696 1.28828 1.9696 2.21602 0 1.53007-1.1816 2.21562-1.1816 3.69296h4.3329c.8796 0 1.5721.73872 1.5758 1.47732.0038.7383-.5342 1.477-.9279 1.477.562.5685.6821 1.767-.2171 2.5633zm-13.18833 3.5734c0 .5178-.44771.9375-1 .9375s-1-.4197-1-.9375.44771-.9375 1-.9375 1 .4197 1 .9375z" fill="#000"/></svg>