<svg fill="none" height="32" viewBox="0 0 32 32" width="32" xmlns="http://www.w3.org/2000/svg" xmlns:xlink="http://www.w3.org/1999/xlink"><clipPath id="a"><path d="m0 0h32v32h-32z"/></clipPath><g clip-path="url(#a)"><circle cx="16" cy="16" fill="#e4003a" r="16"/><path d="m16.0018 12.1957c-2.2702 0-4.1013 1.8315-4.1013 4.1022 0 2.2706 1.8311 4.1021 4.1013 4.1021 2.2701 0 4.1013-1.8315 4.1013-4.1021 0-2.2707-1.8312-4.1022-4.1013-4.1022zm0 6.7691c-1.4671 0-2.6664-1.196-2.6664-2.6669 0-1.471 1.1958-2.667 2.6664-2.667s2.6664 1.196 2.6664 2.667c0 1.4709-1.1994 2.6669-2.6664 2.6669zm5.2256-6.9369c0 .5319-.4283.9568-.9566.9568-.5318 0-.9566-.4285-.9566-.9568 0-.5284.4284-.9569.9566-.9569.5283 0 .9566.4285.9566.9569zm2.7164.9711c-.0607-1.2818-.3534-2.4171-1.2922-3.35249-.9351-.9354-2.0702-1.22816-3.3517-1.29243-1.3206-.07497-5.2792-.07497-6.5998 0-1.2779.0607-2.413.35346-3.35175 1.28886-.93876.93536-1.22788 2.07076-1.29213 3.35246-.07496 1.321-.07496 5.2804 0 6.6013.06068 1.2818.35337 2.4171 1.29213 3.3525.93875.9354 2.07025 1.2282 3.35175 1.2924 1.3206.075 5.2792.075 6.5998 0 1.2815-.0607 2.4166-.3534 3.3517-1.2924.9352-.9354 1.2279-2.0707 1.2922-3.3525.0749-1.3209.0749-5.2768 0-6.5977zm-1.7062 8.0151c-.2784.6998-.8174 1.2389-1.5206 1.5209-1.053.4178-3.5516.3214-4.7152.3214-1.1637 0-3.6658.0928-4.7152-.3214-.6997-.2784-1.2386-.8175-1.52062-1.5209-.41763-1.0532-.32125-3.5524-.32125-4.7162 0-1.1639-.09281-3.6667.32125-4.7163.27842-.6998.81742-1.2389 1.52062-1.5209 1.0529-.41776 3.5515-.32137 4.7152-.32137 1.1636 0 3.6658-.09282 4.7152.32137.6996.2784 1.2386.8175 1.5206 1.5209.4176 1.0532.3212 3.5524.3212 4.7163 0 1.1638.0964 3.6666-.3212 4.7162z" fill="#fff"/></g></svg>