<svg width="32" height="32" viewBox="0 0 32 32" fill="none" xmlns="http://www.w3.org/2000/svg">
<g clip-path="url(#clip0_2137_28853)">
<circle cx="16" cy="16" r="16" fill="#E4003A"/>
<path d="M23.9442 12.2853C23.9569 12.4603 23.9569 12.6354 23.9569 12.8103C23.9569 18.1478 19.8326 24.2979 12.2944 24.2979C9.97209 24.2979 7.81473 23.6353 6 22.4854C6.32996 22.5228 6.64719 22.5354 6.98985 22.5354C8.90607 22.5354 10.6701 21.8979 12.0787 20.8104C10.2767 20.7729 8.7665 19.6104 8.24618 18.0103C8.50001 18.0478 8.7538 18.0728 9.02032 18.0728C9.38833 18.0728 9.75638 18.0228 10.099 17.9354C8.22083 17.5603 6.81215 15.9353 6.81215 13.9728V13.9229C7.35782 14.2229 7.99239 14.4104 8.66493 14.4353C7.56087 13.7103 6.83754 12.4728 6.83754 11.0728C6.83754 10.3228 7.04055 9.63534 7.3959 9.03533C9.41369 11.4853 12.4467 13.0853 15.8477 13.2603C15.7843 12.9603 15.7462 12.6479 15.7462 12.3354C15.7462 10.1103 17.5736 8.29785 19.8452 8.29785C21.0254 8.29785 22.0914 8.78535 22.8401 9.57285C23.7665 9.39786 24.6548 9.06034 25.4416 8.59785C25.137 9.53537 24.4898 10.3229 23.6396 10.8228C24.4645 10.7354 25.264 10.5103 26 10.1979C25.4417 10.9978 24.7437 11.7103 23.9442 12.2853V12.2853Z" fill="white"/>
</g>
<defs>
<clipPath id="clip0_2137_28853">
<rect width="32" height="32" fill="white"/>
</clipPath>
</defs>
</svg>
