<svg width="24" height="24" viewBox="0 0 24 24" fill="none" xmlns="http://www.w3.org/2000/svg">
<path d="M8.65906 22.0002C8.87245 22.0007 9.08325 21.9535 9.27601 21.8619C9.46877 21.7704 9.6386 21.6369 9.77306 21.4712L16.6731 12.9012C16.8832 12.6456 16.9981 12.325 16.9981 11.9942C16.9981 11.6633 16.8832 11.3427 16.6731 11.0872L9.53006 2.51618C9.28765 2.22444 8.93928 2.04095 8.56158 2.00606C8.18388 1.97118 7.80779 2.08777 7.51606 2.33018C7.22432 2.57259 7.04082 2.92096 7.00594 3.29866C6.97106 3.67635 7.08765 4.05244 7.33006 4.34418L13.7161 12.0012L7.54506 19.6572C7.37009 19.8668 7.25888 20.1221 7.2246 20.393C7.19032 20.6639 7.23441 20.9389 7.35165 21.1855C7.46889 21.432 7.65435 21.6398 7.88607 21.7842C8.11779 21.9286 8.38605 22.0036 8.65906 22.0002Z" fill="black"/>
</svg>
