<svg fill="none" height="24" viewBox="0 0 24 24" width="24" xmlns="http://www.w3.org/2000/svg"><path d="m21.999 8.66018c.0006.21341-.0465.42426-.1381.61705-.0915.19278-.2251.36259-.3909.49695l-8.57 6.90002c-.2557.2104-.5765.3254-.9075.3254-.3311 0-.6519-.115-.9075-.3254l-8.57004-7.14402c-.29174-.24241-.47523-.59078-.51012-.96848-.03488-.3777.08171-.75378.32412-1.04552.2424-.29174.59078-.47523.96848-.51012.37769-.03488.75378.08171 1.04552.32412l7.65704 6.38802 7.657-6.17102c.2097-.17454.465-.28538.7357-.31943s.5455.01012.7919.12728c.2465.11716.4542.30241.5987.53387.1444.23146.2196.49944.2167.77228z" fill="currentColor"/></svg>