<svg   viewBox="0 0 24 24" fill="none" xmlns="http://www.w3.org/2000/svg">
<path d="M15.338 22.0002C15.1246 22.0007 14.9138 21.9535 14.721 21.8619C14.5283 21.7704 14.3584 21.6369 14.224 21.4712L7.32498 12.9012C7.11502 12.6455 7.00024 12.325 7.00024 11.9942C7.00024 11.6634 7.11502 11.3428 7.32498 11.0872L14.467 2.51618C14.7094 2.22444 15.0578 2.04095 15.4355 2.00606C15.8132 1.97118 16.1892 2.08777 16.481 2.33018C16.7727 2.57259 16.9562 2.92096 16.9911 3.29866C17.026 3.67635 16.9094 4.05244 16.667 4.34418L10.282 12.0012L16.452 19.6572C16.6265 19.8668 16.7373 20.1221 16.7714 20.3927C16.8055 20.6633 16.7614 20.938 16.6443 21.1844C16.5273 21.4308 16.3422 21.6385 16.1109 21.7831C15.8796 21.9276 15.6107 22.003 15.338 22.0002Z" fill="currentColor"/>
</svg>
