<svg fill="none" height="24" viewBox="0 0 24 24" width="24" xmlns="http://www.w3.org/2000/svg"><path d="m15.338 22.0002c-.2134.0005-.4242-.0467-.617-.1383-.1927-.0915-.3626-.225-.497-.3907l-6.89902-8.57c-.20996-.2557-.32474-.5762-.32474-.907s.11478-.6514.32474-.907l7.14202-8.57102c.2424-.29174.5908-.47523.9685-.51012.3777-.03488.7537.08171 1.0455.32412.2917.24241.4752.59078.5101.96848.0349.37769-.0817.75378-.3241 1.04552l-6.385 7.65702 6.17 7.656c.1745.2096.2853.4649.3194.7355s-.01.5453-.1271.7917c-.117.2464-.3021.4541-.5334.5987-.2313.1445-.5002.2199-.7729.2171z" fill="#000"/></svg>