<svg fill="none" height="24" viewBox="0 0 24 24" width="24" xmlns="http://www.w3.org/2000/svg"><path d="m4.692 3.538h5.385c.3061 0 .5996.12158.816.338s.338.50994.338.816-.1216.59958-.338.816-.5099.338-.816.338h-5.385c-.10194.00026-.1996.04094-.27159.11312-.07199.07217-.11241.16994-.11241.27188v13.077c0 .212.172.384.384.384h13.078c.1019 0 .1997-.0404.2719-.1124s.1128-.1697.1131-.2716v-5.385c0-.3061.1216-.5996.338-.816s.5099-.338.816-.338.5996.1216.816.338.338.5099.338.816v5.385c0 .3538-.0697.7041-.2052 1.0309s-.334.6237-.5843.8737-.5474.4482-.8744.5833c-.327.1352-.6773.2045-1.0311.2041h-13.076c-.71396 0-1.39868-.2836-1.90353-.7885-.50485-.5048-.78847-1.1895-.78847-1.9035v-13.078c0-.71405.28359-1.39888.78841-1.90388.50482-.50501 1.18954-.78885 1.90359-.78912zm10.545-1.538h6.378c.0506 0 .1006.00996.1473.02931.0467.01934.0892.0477.1249.08345.0358.03575.0641.0782.0835.12491.0193.04671.0293.09677.0293.14733v6.378c-.0001.07608-.0227.15042-.065.21365-.0423.06322-.1024.1125-.1727.1416s-.1477.03672-.2223.02191c-.0746-.01482-.1432-.05141-.197-.10516l-2.373-2.373-5.77 5.768c-.1634.1514-.367.2524-.5865.2907-.2194.0384-.4452.0124-.6503-.0746-.205-.0871-.3805-.2316-.5052-.4162-.1248-.1845-.1936-.4012-.198-.6239-.005-.299.1061-.5883.31-.807l5.768-5.77-2.373-2.373c-.0534-.05389-.0897-.12236-.1043-.19681-.0146-.07446-.0069-.15157.0221-.22165.0291-.07009.0782-.13003.1412-.17229s.1371-.06496.213-.06525z" fill="currentColor"/></svg>