<svg width="24" height="24" viewBox="0 0 24 24" fill="none" xmlns="http://www.w3.org/2000/svg">
<path d="M4.42406 19.758C3.89097 19.758 3.43497 19.5682 3.0546 19.1885C2.87115 19.0111 2.72593 18.798 2.62787 18.5624C2.52982 18.3267 2.481 18.0735 2.48442 17.8183V6.18198C2.48442 5.64889 2.67497 5.19289 3.0546 4.81252C3.23198 4.62919 3.44495 4.48405 3.68044 4.386C3.91594 4.28795 4.16899 4.23906 4.42406 4.24234H10.2422L12.1819 6.18198H19.939C20.4728 6.18198 20.9295 6.3718 21.3091 6.75216C21.6895 7.13252 21.8793 7.58852 21.8786 8.12161V17.8183C21.8786 18.3514 21.6895 18.8082 21.3099 19.1885C21.1327 19.3722 20.9196 19.5176 20.6839 19.6155C20.4482 19.7135 20.1949 19.762 19.9397 19.758H4.42333H4.42406Z" fill="black"/>
</svg>
