<svg   viewBox="0 0 24 24" fill="none" xmlns="http://www.w3.org/2000/svg">
<path d="M14.249 5.75C14.249 6.74456 13.8539 7.69839 13.1507 8.40165C12.4474 9.10491 11.4936 9.5 10.499 9.5C9.50444 9.5 8.55061 9.10491 7.84735 8.40165C7.14409 7.69839 6.749 6.74456 6.749 5.75C6.749 4.75544 7.14409 3.80161 7.84735 3.09835C8.55061 2.39509 9.50444 2 10.499 2C11.4936 2 12.4474 2.39509 13.1507 3.09835C13.8539 3.80161 14.249 4.75544 14.249 5.75ZM3 19.868C3.03213 17.9004 3.83634 16.0242 5.23918 14.644C6.64202 13.2639 8.53109 12.4905 10.499 12.4905C12.4669 12.4905 14.356 13.2639 15.7588 14.644C17.1617 16.0242 17.9659 17.9004 17.998 19.868C15.6457 20.9478 13.0873 21.5046 10.499 21.5C7.823 21.5 5.283 20.916 3 19.868Z" stroke="white" stroke-width="1.5" stroke-linecap="round" stroke-linejoin="round"/>
<path d="M17.5 22.5C20.2614 22.5 22.5 20.2614 22.5 17.5C22.5 14.7386 20.2614 12.5 17.5 12.5C14.7386 12.5 12.5 14.7386 12.5 17.5C12.5 20.2614 14.7386 22.5 17.5 22.5Z" fill="#558F3F" stroke="white"/>
<path fill-rule="evenodd" clip-rule="evenodd" d="M19.8556 16.1464C19.9022 16.1928 19.9391 16.248 19.9644 16.3087C19.9896 16.3695 20.0025 16.4346 20.0025 16.5004C20.0025 16.5661 19.9896 16.6313 19.9644 16.692C19.9391 16.7527 19.9022 16.8079 19.8556 16.8544L17.3556 19.3544C17.2618 19.4482 17.1344 19.501 17.0016 19.501C16.8689 19.501 16.7415 19.4482 16.6476 19.3544C16.5538 19.2605 16.501 19.1331 16.501 19.0004C16.501 18.8676 16.5538 18.7402 16.6476 18.6464L19.1476 16.1464C19.1941 16.0998 19.2493 16.0629 19.31 16.0376C19.3708 16.0124 19.4359 15.9995 19.5016 15.9995C19.5674 15.9995 19.6325 16.0124 19.6933 16.0376C19.754 16.0629 19.8092 16.0998 19.8556 16.1464Z" fill="white"/>
<path fill-rule="evenodd" clip-rule="evenodd" d="M15.1478 17.1459C15.1013 17.1924 15.0643 17.2475 15.0391 17.3083C15.0139 17.369 15.0009 17.4342 15.0009 17.4999C15.0009 17.5657 15.0139 17.6308 15.0391 17.6916C15.0643 17.7523 15.1013 17.8075 15.1478 17.8539L16.6478 19.3539C16.7417 19.4478 16.8691 19.5005 17.0018 19.5005C17.1346 19.5005 17.262 19.4478 17.3558 19.3539C17.4497 19.26 17.5025 19.1327 17.5025 18.9999C17.5025 18.8671 17.4497 18.7398 17.3558 18.6459L15.8558 17.1459C15.8094 17.0994 15.7542 17.0624 15.6935 17.0372C15.6327 17.012 15.5676 16.999 15.5018 16.999C15.4361 16.999 15.371 17.012 15.3102 17.0372C15.2495 17.0624 15.1943 17.0994 15.1478 17.1459Z" fill="white"/>
</svg>
