<svg fill="none" height="24" viewBox="0 0 24 24" width="24" xmlns="http://www.w3.org/2000/svg"><path d="m14.249 5.75c0 .99456-.3951 1.94839-1.0983 2.65165-.7033.70326-1.6571 1.09835-2.6517 1.09835-.99456 0-1.94839-.39509-2.65165-1.09835s-1.09835-1.65709-1.09835-2.65165.39509-1.94839 1.09835-2.65165 1.65709-1.09835 2.65165-1.09835c.9946 0 1.9484.39509 2.6517 1.09835.7032.70326 1.0983 1.65709 1.0983 2.65165zm-11.249 14.118c.03213-1.9676.83634-3.8438 2.23918-5.224 1.40284-1.3801 3.29191-2.1535 5.25982-2.1535 1.9679 0 3.857.7734 5.2598 2.1535 1.4029 1.3802 2.2071 3.2564 2.2392 5.224-2.3523 1.0798-4.9107 1.6366-7.499 1.632-2.676 0-5.216-.584-7.499-1.632z" stroke="#fff" stroke-linecap="round" stroke-linejoin="round" stroke-width="1.5"/><path d="m17.5 22.5c2.7614 0 5-2.2386 5-5s-2.2386-5-5-5-5 2.2386-5 5 2.2386 5 5 5z" fill="#d79609" stroke="#fff"/><path d="m19.6416 16.0732c.1979-.1973.1981-.5177.0005-.7152-.1975-.1976-.5179-.1974-.7152.0005l-1.4269 1.4309-1.4269-1.4309c-.1973-.1979-.5177-.1981-.7152-.0005-.1976.1975-.1974.5179.0005.7152l1.4309 1.4269-1.4309 1.4269c-.1979.1973-.1981.5177-.0005.7152.1975.1976.5179.1974.7152-.0005l1.4269-1.4309 1.4269 1.4309c.1973.1979.5177.1981.7152.0005.1976-.1975.1974-.5179-.0005-.7152l-1.4309-1.4269z" fill="#fff"/></svg>