<svg fill="none" height="24" viewBox="0 0 24 24" width="24" xmlns="http://www.w3.org/2000/svg"><path d="m21.671 20.094-3.776-3.765c1.2185-1.5524 1.8796-3.4695 1.877-5.443 0-1.75748-.5212-3.4755-1.4976-4.93679-.9764-1.4613-2.3642-2.60024-3.9879-3.2728s-3.4104-.84853-5.13407-.50566c-1.72371.34286-3.30705 1.18917-4.54978 2.4319s-2.08904 2.82607-2.4319 4.54978c-.34287 1.72367-.1669 3.51037.50566 5.13407s1.8115 3.0115 3.2728 3.9879c1.46129.9764 3.17931 1.4976 4.93679 1.4976 1.9735.0026 3.8906-.6585 5.443-1.877l3.765 3.776c.1032.1042.226.1868.3614.2433.1353.0564.2805.0854.4271.0854s.2918-.029.4271-.0854c.1354-.0565.2582-.1391.3614-.2433.1042-.1032.1868-.226.2433-.3614.0564-.1353.0854-.2805.0854-.4271s-.029-.2918-.0854-.4271c-.0565-.1354-.1391-.2582-.2433-.3614zm-17.45-9.208c0-.8753.1724-1.74195.50735-2.55058.33494-.80864.82588-1.54338 1.44479-2.16228.6189-.61891 1.35364-1.10985 2.16228-1.44479.80863-.33495 1.67528-.50735 2.55058-.50735s1.742.1724 2.5506.50735c.8086.33494 1.5434.82588 2.1623 1.44479.6189.6189 1.1098 1.35364 1.4448 2.16228.3349.80863.5073 1.67528.5073 2.55058 0 1.7677-.7022 3.4629-1.9521 4.7129-1.25 1.2499-2.9452 1.9521-4.7129 1.9521-1.76766 0-3.46293-.7022-4.71286-1.9521-1.24993-1.25-1.95214-2.9452-1.95214-4.7129z" fill="currentColor"/></svg>