<svg fill="none" height="24" viewBox="0 0 24 24" width="24" xmlns="http://www.w3.org/2000/svg"><g fill="currentColor"><path d="m15.125 12c0 .8288-.3292 1.6237-.9153 2.2097-.586.5861-1.3809.9153-2.2097.9153s-1.6237-.3292-2.20971-.9153c-.58605-.586-.91529-1.3809-.91529-2.2097s.32924-1.6237.91529-2.20971c.58601-.58605 1.38091-.91529 2.20971-.91529s1.6237.32924 2.2097.91529c.5861.58601.9153 1.38091.9153 2.20971z"/><path d="m2 12s3.75-6.875 10-6.875 10 6.875 10 6.875-3.75 6.875-10 6.875-10-6.875-10-6.875zm10 4.375c1.1603 0 2.2731-.4609 3.0936-1.2814s1.2814-1.9333 1.2814-3.0936-.4609-2.27312-1.2814-3.09359-1.9333-1.28141-3.0936-1.28141-2.27312.46094-3.09359 1.28141-1.28141 1.93329-1.28141 3.09359.46094 2.2731 1.28141 3.0936 1.93329 1.2814 3.09359 1.2814z"/></g></svg>