<svg fill="none" height="24" viewBox="0 0 24 24" width="24" xmlns="http://www.w3.org/2000/svg"><path clip-rule="evenodd" d="m2.625 2h18.75c.3438 0 .625.3375.625.75v1.5c0 .4125-.2812.75-.625.75h-18.75c-.34375 0-.625-.3375-.625-.75v-1.5c0-.4125.28125-.75.625-.75zm1.63336 12.4044.81356.7928c.34814.3428.91617.3357 1.25699-.0143l4.20709-4.3031v10.2632c0 .4749.3921.857.8795.857h1.1727c.4874 0 .8795-.3821.8795-.857v-10.2632l4.2034 4.2995c.3408.3464.9088.3536 1.257.0143l.8135-.7928c.3445-.3321.3445-.8749 0-1.2105l-7.1204-6.93854c-.3409-.33568-.8979-.33568-1.2424 0l-7.12044 6.94204c-.34448.3321-.34448.8749 0 1.2106z" fill="currentColor" fill-rule="evenodd"/></svg>