<svg fill="none" height="24" viewBox="0 0 24 24" width="24" xmlns="http://www.w3.org/2000/svg"><path d="m2.26786 6.51573h19.46424c.0938 0 .1859-.03269.2555-.09407.0701-.06174.1124-.1484.1124-.24188v-.94382c0-.09349-.0423-.18015-.1124-.24189-.0696-.06138-.1617-.09407-.2555-.09407h-19.46424c-.09376 0-.18583.03269-.25551.09407-.07008.06174-.11235.1484-.11235.24189v.94382c0 .09348.04227.18014.11235.24188.06968.06138.16175.09407.25551.09407zm0 6.29217h19.46424c.0938 0 .1859-.0327.2555-.0941.0701-.0617.1124-.1484.1124-.2419v-.9438c0-.0935-.0423-.1802-.1124-.2419-.0696-.0614-.1617-.0941-.2555-.0941h-19.46424c-.09376 0-.18583.0327-.25551.0941-.07008.0617-.11235.1484-.11235.2419v.9438c0 .0935.04227.1802.11235.2419.06968.0614.16175.0941.25551.0941zm0 6.2921h19.46424c.0938 0 .1859-.0327.2555-.0941.0701-.0617.1124-.1484.1124-.2419v-.9438c0-.0935-.0423-.1801-.1124-.2419-.0696-.0613-.1617-.094-.2555-.094h-19.46424c-.09376 0-.18583.0327-.25551.094-.07008.0618-.11235.1484-.11235.2419v.9438c0 .0935.04227.1802.11235.2419.06968.0614.16175.0941.25551.0941z" fill="#000" stroke="#000" stroke-width=".2"/></svg>