<svg width="24" height="24" viewBox="0 0 24 24" fill="none" xmlns="http://www.w3.org/2000/svg">
<path d="M12.5 2C8.225 2 4 4.74089 4 9.17681C4 11.9978 5.65 13.6007 6.65 13.6007C7.0625 13.6007 7.3 12.4947 7.3 12.1822C7.3 11.8095 6.3125 11.0161 6.3125 9.46532C6.3125 6.24357 8.8625 3.9595 12.1625 3.9595C15 3.9595 17.1 5.51026 17.1 8.35935C17.1 10.4871 16.2125 14.4783 13.3375 14.4783C12.3 14.4783 11.4125 13.757 11.4125 12.7231C11.4125 11.2084 12.5125 9.74182 12.5125 8.17903C12.5125 5.52629 8.6 6.00715 8.6 9.21287C8.6 9.88607 8.6875 10.6314 9 11.2445C8.425 13.6247 7.25 17.1711 7.25 19.6234C7.25 20.3808 7.3625 21.1261 7.4375 21.8835C7.57917 22.0358 7.50833 22.0197 7.725 21.9436C9.825 19.1787 9.75 18.6377 10.7 15.0192C11.2125 15.9569 12.5375 16.4618 13.5875 16.4618C18.0125 16.4618 20 12.3144 20 8.57573C20 4.59663 16.425 2 12.5 2Z" fill="black"/>
</svg>
