<svg fill="none" height="32" viewBox="0 0 32 32" width="32" xmlns="http://www.w3.org/2000/svg" xmlns:xlink="http://www.w3.org/1999/xlink"><clipPath id="a"><path d="m0 0h32v32h-32z"/></clipPath><g clip-path="url(#a)" fill="#000"><path clip-rule="evenodd" d="m16 1.88235c-7.79696 0-14.11765 6.32069-14.11765 14.11765 0 7.797 6.32069 14.1176 14.11765 14.1176 7.797 0 14.1176-6.3206 14.1176-14.1176 0-7.79696-6.3206-14.11765-14.1176-14.11765zm-16 14.11765c0-8.83656 7.16344-16 16-16 8.8366 0 16 7.16344 16 16 0 8.8366-7.1634 16-16 16-8.83656 0-16-7.1634-16-16z" fill-rule="evenodd"/><path d="m14.321 14.016c-.27-.18-1.166-.802-1.166-.802.756-1.081 1.753-1.502 3.132-1.502.975 0 1.803.327 2.394.948s.928 1.509 1.005 2.644c.328.138.6297.2993.905.484 1.109.745 1.719 1.86 1.719 3.137 0 2.716-2.226 5.075-6.256 5.075-3.46 0-7.054-2.013-7.054-8.006 0-5.96 3.482-7.994 7.044-7.994 1.646 0 5.506.243 6.956 5.036l-1.36.353c-1.124-3.415-3.477-3.959-5.634-3.959-3.565 0-5.582 2.171-5.582 6.79 0 4.143 2.254 6.343 5.63 6.343 2.777 0 4.847-1.443 4.847-3.556 0-1.438-1.208-2.127-1.27-2.127-.236 1.234-.868 3.31-3.644 3.31-1.618 0-3.013-1.118-3.013-2.582 0-2.09 1.984-2.847 3.55-2.847.586 0 1.294.04 1.663.114 0-.637-.54-1.728-1.9-1.728-1.25 0-1.566.405-1.967.868zm2.395 2.174c-2.04 0-2.304.87-2.304 1.416 0 .878 1.043 1.168 1.6 1.168 1.02 0 2.067-.282 2.232-2.423-.5007-.1168-1.014-.1709-1.528-.161z"/></g></svg>