<svg fill="none" height="24" viewBox="0 0 24 24" width="24" xmlns="http://www.w3.org/2000/svg"><path d="m1.99903 15.3399c-.00072-.2133.04633-.4241.13769-.6168.09137-.1928.22473-.3627.39031-.4972l8.56997-6.89997c.2557-.2104.5765-.32544.9075-.32544.3311 0 .6519.11504.9075.32544l8.57 7.14297c.2918.2424.4753.5908.5101.9685.0349.3777-.0817.7538-.3241 1.0455-.12.1445-.2673.2639-.4335.3514-.1661.0875-.3479.1415-.5349.1587-.3777.0349-.7538-.0817-1.0456-.3241l-7.656-6.386-7.65697 6.171c-.20964.1744-.4648.2851-.73534.319s-.54515-.0103-.79135-.1274c-.24621-.1172-.45372-.3024-.59802-.5338-.14431-.2313-.21936-.4991-.21629-.7718z" fill="#000"/></svg>