<svg fill="none" height="24" viewBox="0 0 24 24" width="24" xmlns="http://www.w3.org/2000/svg"><path d="m2.37331 15.3169c-.46903-.5101-.55518-1.5092.08615-2.2956.22973-.2763.79447-.8821 2.45043-2.6782 7.27471-7.96017 9.97401-9.607466 12.02241-7.5138 1.522 1.55165.0862 4.26172-2.6801 8.5553-3.5991 5.6008-4.36486 6.7486-3.8097 7.365.4212.4677 1.5124-.1275 4.3074-2.8588 3.0535-2.9864 4.5755-4.3786 5.8581-2.9864.8998.9777.4307 2.3381-.8423 4.7612-.9955 1.8917-1.4454 2.8908-1.1295 3.2415.2967.3294 1.273-.2445 2.5461-1.6367.2106-.2232.4882-.2551.6892-.0425.2106.2338.1532.5526-.1053.829-1.8091 1.9129-3.1587 2.3699-3.8766 1.5622-1.0147-1.1159.0574-2.9013.9859-4.6868.8136-1.5517 1.2252-2.4444.8519-2.8589-.5361-.5845-1.991.9353-4.0203 2.912-3.4459 3.369-5.4752 4.6125-6.71953 3.2202-1.61767-1.796.56475-4.8356 3.86713-10.0113 1.4071-2.17867 3.0917-4.85686 2.3738-5.46264-.7944-.71206-3.9915 2.82698-8.43292 7.83264-1.56981 1.7855-2.11541 2.4231-2.36429 2.6569-.68918.6802-1.58895.6058-2.05798.0957z" fill="currentColor"/></svg>