<svg fill="none" height="32" viewBox="0 0 32 32" width="32" xmlns="http://www.w3.org/2000/svg" xmlns:xlink="http://www.w3.org/1999/xlink"><clipPath id="a"><path d="m0 0h32v32h-32z"/></clipPath><g clip-path="url(#a)" fill="#000"><path clip-rule="evenodd" d="m16 1.88235c-7.79696 0-14.11765 6.32069-14.11765 14.11765 0 7.797 6.32069 14.1176 14.11765 14.1176 7.797 0 14.1176-6.3206 14.1176-14.1176 0-7.79696-6.3206-14.11765-14.1176-14.11765zm-16 14.11765c0-8.83656 7.16344-16 16-16 8.8366 0 16 7.16344 16 16 0 8.8366-7.1634 16-16 16-8.83656 0-16-7.1634-16-16z" fill-rule="evenodd"/><path d="m20.44 9.82c-.6836-.78038-1.0603-1.78257-1.06-2.82h-3.09v12.4c-.0238.671-.3071 1.3066-.7902 1.7729-.4831.4664-1.1284.727-1.7998.7271-1.42 0-2.6-1.16-2.6-2.6 0-1.72 1.66-3.01 3.37-2.48v-3.16c-3.45-.46-6.47 2.22-6.47 5.64 0 3.33 2.76 5.7 5.69 5.7 3.14 0 5.69-2.55 5.69-5.7v-6.29c1.253.8999 2.7574 1.3826 4.3 1.38v-3.09s-1.88.09-3.24-1.48z"/></g></svg>