<svg fill="none" height="32" viewBox="0 0 32 32" width="32" xmlns="http://www.w3.org/2000/svg" xmlns:xlink="http://www.w3.org/1999/xlink"><clipPath id="a"><path d="m0 0h32v32h-32z"/></clipPath><g clip-path="url(#a)" fill="currentColor"><path clip-rule="evenodd" d="m16 1.88235c-7.79696 0-14.11765 6.32069-14.11765 14.11765 0 7.797 6.32069 14.1176 14.11765 14.1176 7.797 0 14.1176-6.3206 14.1176-14.1176 0-7.79696-6.3206-14.11765-14.1176-14.11765zm-16 14.11765c0-8.83656 7.16344-16 16-16 8.8366 0 16 7.16344 16 16 0 8.8366-7.1634 16-16 16-8.83656 0-16-7.1634-16-16z" fill-rule="evenodd"/><path d="m11.9381 10.4698c-.0002.3896-.1552.7632-.4308 1.0385-.2756.2754-.6494.43-1.039.4298s-.76318-.1552-1.03855-.4308c-.27536-.2756-.42994-.6494-.42975-1.039s.15516-.76318.43079-1.03855c.27564-.27536.64941-.42994 1.03901-.42975s.7632.15516 1.0385.43079c.2754.27564.43.64941.4298 1.03901zm.0441 2.5561h-2.93813v9.1962h2.93813zm4.6421 0h-2.9234v9.1962h2.8941v-4.8258c0-2.6883 3.5036-2.9381 3.5036 0v4.8258h2.9014v-5.8247c0-4.532-5.1857-4.3631-6.405-2.1375z"/></g></svg>