<svg width="32" height="32" viewBox="0 0 32 32" fill="none" xmlns="http://www.w3.org/2000/svg">
<g clip-path="url(#clip0_2137_28206)">
<path fill-rule="evenodd" clip-rule="evenodd" d="M16 1.88235C8.20304 1.88235 1.88235 8.20304 1.88235 16C1.88235 23.797 8.20304 30.1176 16 30.1176C23.797 30.1176 30.1176 23.797 30.1176 16C30.1176 8.20304 23.797 1.88235 16 1.88235ZM0 16C0 7.16344 7.16344 0 16 0C24.8366 0 32 7.16344 32 16C32 24.8366 24.8366 32 16 32C7.16344 32 0 24.8366 0 16Z" fill="black"/>
<path d="M17.5158 14.7757L23.4682 8H22.0582L16.8875 13.882L12.7608 8H8L14.2417 16.8955L8 24H9.41002L14.8668 17.787L19.2258 24H23.9867M9.91893 9.04127H12.0851L22.0571 23.0099H19.8904" fill="black"/>
</g>
<defs>
<clipPath id="clip0_2137_28206">
<rect width="32" height="32" fill="white"/>
</clipPath>
</defs>
</svg>
