<svg   viewBox="0 0 24 24" fill="none" xmlns="http://www.w3.org/2000/svg">
<path fill-rule="evenodd" clip-rule="evenodd" d="M12 22C17.5228 22 22 17.5228 22 12C22 6.47715 17.5228 2 12 2C6.47715 2 2 6.47715 2 12C2 17.5228 6.47715 22 12 22ZM9.9783 14.2849L16.3705 7.64421C16.4843 7.52591 16.669 7.52591 16.7828 7.64421L17.4702 8.35825C17.584 8.47658 17.584 8.66839 17.4702 8.78669L10.1845 16.3556C10.0706 16.4739 9.88596 16.4739 9.77208 16.3556L6.52986 12.9874C6.41598 12.869 6.41598 12.6772 6.52986 12.5589L7.21718 11.8449C7.33108 11.7266 7.51571 11.7266 7.62959 11.8449L9.9783 14.2849Z" fill="currentColor"/>
</svg>
