<svg fill="none" height="24" viewBox="0 0 24 24" width="24" xmlns="http://www.w3.org/2000/svg"><path d="m13.3226 11.9796 7.461-7.44104c.1474-.17171.2245-.39259.2157-.61849-.0087-.22591-.1026-.4402-.2629-.60005-.1603-.15986-.3752-.25351-.6017-.26223-.2265-.00873-.4479.06811-.6201.21516l-7.461 7.44105-7.46101-7.45003c-.16947-.16902-.39933-.26397-.639-.26397s-.46953.09495-.639.26397-.26468.39827-.26468.6373.09521.46827.26468.63729l7.47001 7.44104-7.47001 7.441c-.09421.0805-.17073.1795-.22475.2909s-.08438.2326-.08917.3563c-.00479.1236.0161.2469.06135.362.04524.1152.11387.2198.20158.3073s.19261.1559.3081.2011c.11549.0451.23909.0659.36304.0611.12394-.0047.24556-.035.35722-.0889s.21095-.1302.29163-.2241l7.47001-7.4411 7.461 7.4411c.1722.147.3936.2238.6201.2151s.4414-.1024.6017-.2622c.1603-.1599.2542-.3742.2629-.6001.0088-.2259-.0683-.4467-.2157-.6185z" fill="#000"/></svg>