<svg fill="none" height="24" viewBox="0 0 24 24" width="24" xmlns="http://www.w3.org/2000/svg"><path clip-rule="evenodd" d="m12 22c5.5228 0 10-4.4772 10-10 0-5.52285-4.4772-10-10-10-5.52285 0-10 4.47715-10 10 0 5.5228 4.47715 10 10 10zm1.6936-13.30645c0-.93532-.7583-1.69355-1.6936-1.69355s-1.6935.75823-1.6935 1.69355.7582 1.69355 1.6935 1.69355 1.6936-.75823 1.6936-1.69355zm.0806 9.03225c.2672 0 .4839-.2166.4839-.4839v-.9677c0-.2672-.2167-.4839-.4839-.4839h-.4839v-4.0322c0-.2673-.2166-.4839-.4838-.4839h-2.5807c-.2672 0-.48386.2166-.48386.4839v.9677c0 .2672.21666.4839.48386.4839h.4839v2.5806h-.4839c-.2672 0-.48386.2167-.48386.4839v.9677c0 .2673.21666.4839.48386.4839z" fill="currentColor" fill-rule="evenodd"/></svg>